<?xml version="1.0" encoding="utf-8"?>
<!-- Generator: Adobe Illustrator 22.0.1, SVG Export Plug-In . SVG Version: 6.00 Build 0)  -->
<svg version="1.1" id="Ebene_1" xmlns="http://www.w3.org/2000/svg" xmlns:xlink="http://www.w3.org/1999/xlink" x="0px" y="0px"
	 viewBox="0 0 90.7 90.7" style="enable-background:new 0 0 90.7 90.7;" xml:space="preserve">
<style type="text/css">
	.st0{fill:#1D1D1B;}
</style>
<g>
	<path class="st0" d="M49.4,21.1c-0.8-3.7-4.2-6.5-8.2-6.5c-4.6,0-8.4,3.8-8.4,8.4c0,0.3,0,0.6,0,0.9C23.5,28.6,17.7,38,17.7,48.5
		c0,15.2,12.4,27.6,27.6,27.6S73,63.7,73,48.5C73,34.8,62.9,23.1,49.4,21.1z M41.2,16.6c3.5,0,6.4,2.9,6.4,6.4
		c0,6.5-4.7,10.9-6.4,12.2c-1.7-1.3-6.4-5.8-6.4-12.2C34.8,19.5,37.6,16.6,41.2,16.6z M45.4,74.1c-3.8,0-7.4-0.8-10.6-2.3l4.6-4.6
		c0.2-0.2,0.3-0.4,0.3-0.7v-2.7h-2v2.3l-4.7,4.7C25,66.5,19.7,58.1,19.7,48.5c0-2.3,0.3-4.6,0.9-6.8h5.2c0.3,0,0.5-0.1,0.7-0.3
		l7.9-7.9l-1.4-1.4l-7.6,7.6h-4.2C23.3,33.9,27.5,29,33.1,26c1.4,7.1,7.3,11.1,7.5,11.3c0.2,0.1,0.4,0.2,0.6,0.2s0.4-0.1,0.6-0.2
		c0.3-0.2,7.7-5.3,7.8-14.1C61.8,25.2,71,35.9,71,48.5C71,62.6,59.5,74.1,45.4,74.1z"/>
	<path class="st0" d="M44.9,23c0-2.1-1.7-3.7-3.7-3.7s-3.7,1.7-3.7,3.7c0,2.1,1.7,3.7,3.7,3.7S44.9,25,44.9,23z M39.5,23
		c0-1,0.8-1.7,1.7-1.7s1.7,0.8,1.7,1.7s-0.8,1.7-1.7,1.7S39.5,23.9,39.5,23z"/>
	<path class="st0" d="M33,47.4c-2.1,0-3.7,1.7-3.7,3.7s1.7,3.7,3.7,3.7s3.7-1.7,3.7-3.7S35,47.4,33,47.4z M33,52.8
		c-1,0-1.7-0.8-1.7-1.7s0.8-1.7,1.7-1.7s1.7,0.8,1.7,1.7S33.9,52.8,33,52.8z"/>
	<path class="st0" d="M33,42.7c-4.6,0-8.4,3.8-8.4,8.4c0,8.9,7.5,14.1,7.8,14.3c0.2,0.1,0.4,0.2,0.6,0.2s0.4-0.1,0.6-0.2
		c0.3-0.2,7.8-5.4,7.8-14.3C41.4,46.5,37.6,42.7,33,42.7z M33,63.3c-1.7-1.3-6.4-5.8-6.4-12.2c0-3.5,2.9-6.4,6.4-6.4
		s6.4,2.9,6.4,6.4C39.4,57.6,34.6,62,33,63.3z"/>
	<path class="st0" d="M57.9,55.4c0.2,0.1,0.4,0.2,0.6,0.2s0.4-0.1,0.6-0.2c0.3-0.2,7.8-5.4,7.8-14.3c0-4.6-3.8-8.4-8.4-8.4
		S50,36.4,50,41C50,49.9,57.6,55.2,57.9,55.4z M58.4,34.6c3.5,0,6.4,2.9,6.4,6.4c0,6.5-4.7,10.9-6.4,12.3C56.8,52,52,47.6,52,41
		C52,37.5,54.9,34.6,58.4,34.6z"/>
	<path class="st0" d="M62.2,41c0-2.1-1.7-3.7-3.7-3.7S54.7,39,54.7,41s1.7,3.7,3.7,3.7S62.2,43.1,62.2,41z M56.7,41
		c0-1,0.8-1.7,1.7-1.7c1,0,1.7,0.8,1.7,1.7s-0.8,1.7-1.7,1.7C57.5,42.8,56.7,42,56.7,41z"/>
	<path class="st0" d="M64.2,57.5L57,64.7h-2.6V56c0-0.6-0.4-1-1-1h-5.1L46,52.7v-9.1l2.3-2.3l-1.4-1.4l-2.6,2.6
		c-0.2,0.2-0.3,0.4-0.3,0.7v9.9c0,0.3,0.1,0.5,0.3,0.7l2.9,2.9c0.2,0.2,0.4,0.3,0.7,0.3h4.5v8.7c0,0.6,0.4,1,1,1h4
		c0.3,0,0.5-0.1,0.7-0.3l7.8-7.8c0.2-0.2,0.3-0.4,0.3-0.7v-4.8h-2V57.5z"/>
</g>
</svg>
