<?xml version="1.0" encoding="utf-8"?>
<!-- Generator: Adobe Illustrator 22.0.1, SVG Export Plug-In . SVG Version: 6.00 Build 0)  -->
<svg version="1.1" id="Ebene_1" xmlns="http://www.w3.org/2000/svg" xmlns:xlink="http://www.w3.org/1999/xlink" x="0px" y="0px"
	 viewBox="0 0 90.7 90.7" style="enable-background:new 0 0 90.7 90.7;" xml:space="preserve">
<style type="text/css">
	.st0{fill:#1D1D1B;}
</style>
<g>
	<path class="st0" d="M66,40.4l-3.3,3.3c-0.2,0.2-0.3,0.4-0.3,0.7s0.1,0.5,0.3,0.7l3.3,3.3l1.4-1.4l-1.6-1.6h4.4c0.6,0,1-0.4,1-1
		v-8.5h-2v7.5h-3.4l1.6-1.6L66,40.4z"/>
	<path class="st0" d="M62.6,54.6c-6.7,0-12.1,5.4-12.1,12.1c0,6.7,5.4,12.1,12.1,12.1s12.1-5.4,12.1-12.1
		C74.7,60,69.3,54.6,62.6,54.6z M62.6,76.8c-5.6,0-10.1-4.5-10.1-10.1c0-5.6,4.5-10.1,10.1-10.1s10.1,4.5,10.1,10.1
		C72.7,72.2,68.2,76.8,62.6,76.8z"/>
	<path class="st0" d="M24.3,52.8c-5.1,0-9.3,4.2-9.3,9.3s4.2,9.3,9.3,9.3s9.3-4.2,9.3-9.3S29.4,52.8,24.3,52.8z M24.3,69.4
		c-4,0-7.3-3.3-7.3-7.3c0-4,3.3-7.3,7.3-7.3s7.3,3.3,7.3,7.3C31.6,66.1,28.3,69.4,24.3,69.4z"/>
	<path class="st0" d="M70.2,18.1c-4.4,0-7.9,3.6-7.9,7.9s3.6,7.9,7.9,7.9s7.9-3.6,7.9-7.9S74.5,18.1,70.2,18.1z M70.2,31.9
		c-3.3,0-5.9-2.7-5.9-5.9c0-3.3,2.7-5.9,5.9-5.9c3.3,0,5.9,2.7,5.9,5.9C76.1,29.3,73.4,31.9,70.2,31.9z"/>
	<path class="st0" d="M35.4,14.5c2.5,0,4.6,2,4.6,4.6c0,2.3-1.8,4.3-4.2,4.5l0.2,2c3.4-0.3,6-3.2,6-6.5c0-3.6-2.9-6.6-6.6-6.6
		c-1,0-2,0.2-2.9,0.7l0.9,1.8C34,14.7,34.7,14.5,35.4,14.5z"/>
	<path class="st0" d="M23.3,11.9c-5.9,0-10.7,4.8-10.7,10.7c0,5.9,4.8,10.7,10.7,10.7S34,28.6,34,22.7C34,16.7,29.2,11.9,23.3,11.9z
		 M23.3,31.4c-4.8,0-8.7-3.9-8.7-8.7c0-4.8,3.9-8.7,8.7-8.7c4.8,0,8.7,3.9,8.7,8.7C32,27.5,28.1,31.4,23.3,31.4z"/>
	<path class="st0" d="M43.2,59.2l1.6,1.6l1.4-1.4l-3.3-3.3c-0.4-0.4-1-0.4-1.4,0l-3.3,3.3l1.4,1.4l1.6-1.6v7.4c0,0.6,0.4,1,1,1h6.4
		v-2h-5.4V59.2z"/>
	<path class="st0" d="M49.4,24.5l-1.6-1.6l-1.4,1.4l3.3,3.3c0.2,0.2,0.5,0.3,0.7,0.3s0.5-0.1,0.7-0.3l3.3-3.3l-1.4-1.4l-1.6,1.6
		v-5.4c0-0.6-0.4-1-1-1h-6.6v2h5.6V24.5z"/>
	<path class="st0" d="M23.3,40.8v10.1h2v-9.1h2.8l-1.6,1.6l1.4,1.4l3.3-3.3c0.2-0.2,0.3-0.4,0.3-0.7s-0.1-0.5-0.3-0.7l-3.3-3.3
		l-1.4,1.4l1.6,1.6h-3.8C23.7,39.8,23.3,40.2,23.3,40.8z"/>
	<path class="st0" d="M59.3,52V35.8c0-0.6-0.4-1-1-1H39.2v2h18.1V51H37.4c-0.7,0-1.2-0.5-1.2-1.2V34.1c0-0.7,0.5-1.2,1.2-1.2h18.8
		v-2H37.4c-1.8,0-3.2,1.4-3.2,3.2v15.6c0,1.8,1.4,3.2,3.2,3.2h20.9C58.9,53,59.3,52.5,59.3,52z"/>
	<path class="st0" d="M45.8,38.3v1.2h-1.6c-1.5,0-2.7,1.2-2.7,2.7s1.2,2.7,2.7,2.7h5.2c0.4,0,0.7,0.3,0.7,0.7c0,0.4-0.3,0.7-0.7,0.7
		h-7.2v2h3.6v1.2h2v-1.2h1.6c1.5,0,2.7-1.2,2.7-2.7s-1.2-2.7-2.7-2.7h-5.2c-0.4,0-0.7-0.3-0.7-0.7s0.3-0.7,0.7-0.7h7.2v-2h-3.6v-1.2
		H45.8z"/>
</g>
</svg>
