<?xml version="1.0" encoding="utf-8"?>
<!-- Generator: Adobe Illustrator 22.0.1, SVG Export Plug-In . SVG Version: 6.00 Build 0)  -->
<svg version="1.1" id="Ebene_1" xmlns="http://www.w3.org/2000/svg" xmlns:xlink="http://www.w3.org/1999/xlink" x="0px" y="0px"
	 viewBox="0 0 90.7 90.7" style="enable-background:new 0 0 90.7 90.7;" xml:space="preserve">
<style type="text/css">
	.st0{fill:#1D1D1B;}
</style>
<g>
	<path class="st0" d="M69.3,15.6H28.8c-2.7,0-4.8,2.2-4.8,4.8v53.7c0,0.6,0.4,1,1,1h40.5c0.6,0,1-0.4,1-1V20.4
		c0-1.6,1.3-2.8,2.8-2.8s2.8,1.3,2.8,2.8v9.5h-2.8v2h3.8c0.6,0,1-0.4,1-1V20.4C74.2,17.8,72,15.6,69.3,15.6z M64.5,20.4v52.7H26
		V20.4c0-1.6,1.3-2.8,2.8-2.8h36.6C64.9,18.4,64.5,19.4,64.5,20.4z"/>
	<path class="st0" d="M33.4,62.5h23.7c0.6,0,1-0.4,1-1V41.1c0-0.6-0.4-1-1-1H41.2v-5.2c0-2.3,1.8-4.1,4.1-4.1s4.1,1.8,4.1,4.1
		c0,0.6,0.4,1,1,1h4c0.6,0,1-0.4,1-1c0-5.6-4.5-10.1-10.1-10.1c-5.6,0-10.1,4.5-10.1,10.1v5.2h-1.8c-0.6,0-1,0.4-1,1v20.3
		C32.4,62,32.9,62.5,33.4,62.5z M37.2,34.9c0-4.5,3.6-8.1,8.1-8.1c4.1,0,7.5,3.1,8,7.1h-2c-0.5-2.9-3-5.1-6-5.1
		c-3.4,0-6.1,2.7-6.1,6.1v5.2h-2V34.9z M34.4,42.1h21.7v18.3H34.4V42.1z"/>
	<path class="st0" d="M45.3,43.8c-4.2,0-7.5,3.4-7.5,7.5s3.4,7.5,7.5,7.5s7.5-3.4,7.5-7.5S49.4,43.8,45.3,43.8z M45.3,56.9
		c-3.1,0-5.5-2.5-5.5-5.5c0-3.1,2.5-5.5,5.5-5.5c3.1,0,5.5,2.5,5.5,5.5C50.8,54.4,48.3,56.9,45.3,56.9z"/>
	<path class="st0" d="M42.5,48.6l1.4,1.4c0.7-0.7,1.9-0.7,2.6,0c0.7,0.7,0.7,1.9,0,2.6c-0.7,0.7-1.9,0.7-2.6,0L42.5,54
		c0.7,0.7,1.7,1.1,2.7,1.1c1,0,2-0.4,2.7-1.1c1.5-1.5,1.5-3.9,0-5.4C46.5,47.1,44,47.1,42.5,48.6z"/>
</g>
</svg>
