<?xml version="1.0" encoding="utf-8"?>
<!-- Generator: Adobe Illustrator 22.0.1, SVG Export Plug-In . SVG Version: 6.00 Build 0)  -->
<svg version="1.1" id="Ebene_1" xmlns="http://www.w3.org/2000/svg" xmlns:xlink="http://www.w3.org/1999/xlink" x="0px" y="0px"
	 viewBox="0 0 90.7 90.7" style="enable-background:new 0 0 90.7 90.7;" xml:space="preserve">
<style type="text/css">
	.st0{fill:#1D1D1B;}
</style>
<g>
	<path class="st0" d="M55.6,45.1l-4.9-1.6l-0.6,1.9l2.8,0.9c-2.4,1.1-5.1,1.5-7.7,0.9c-4.3-0.9-7.7-4.2-8.9-8.4l-1.9,0.5
		c0.2,0.7,0.4,1.3,0.7,1.9c-2.4,1-5.2,0.1-6.7-2.1c-1.6-2.6-0.9-6,1.7-7.6c0.9-0.5,1.8-0.8,2.8-0.9l0-2c-1.4,0-2.7,0.4-3.9,1.2
		c-3.5,2.2-4.5,6.9-2.3,10.4c1.4,2.2,3.9,3.5,6.3,3.5c1,0,2-0.2,3-0.6c2,3.1,5.1,5.3,8.8,6.1c1,0.2,2,0.3,3,0.3c2,0,4-0.4,5.8-1.3
		l-0.8,2.4l1.9,0.6l1.6-4.9C56.4,45.8,56.2,45.3,55.6,45.1z"/>
	<path class="st0" d="M38.6,34.2c-0.6-0.3-1.2-0.6-1.9-0.8c-2.3-0.5-4.7,0.4-6.1,2.3l1.6,1.2c1-1.3,2.6-1.8,4.1-1.5
		c1.1,0.2,2,0.9,2.6,1.8c0.6,0.9,0.8,2,0.5,3.1l2,0.4c0.4-1.9-0.1-3.7-1.2-5.1c0.7-1.4,2.3-2.2,3.9-1.9c0.2,0,0.4,0.1,0.6,0.2
		l0.8-1.8c-0.3-0.1-0.6-0.2-1-0.3C42.1,31.2,39.8,32.3,38.6,34.2z"/>
	<path class="st0" d="M64,33.1c-2-3.1-6-4.3-9.3-2.8c-2-3.1-5.1-5.3-8.8-6.1c-3-0.6-6-0.3-8.8,1l0.8-2.4l-1.9-0.6L34.4,27
		c-0.1,0.3-0.1,0.5,0.1,0.8s0.3,0.4,0.6,0.5l4.9,1.6l0.6-1.9l-2.8-0.9c2.4-1.1,5.1-1.5,7.7-0.9c4.3,0.9,7.7,4.2,8.9,8.4l1.9-0.5
		c-0.2-0.7-0.4-1.3-0.7-1.9c2.4-1,5.2-0.1,6.7,2.1c0.8,1.2,1.1,2.7,0.7,4.2c-0.3,1.4-1.2,2.7-2.4,3.5c-0.9,0.5-1.8,0.8-2.8,0.9l0,2
		c1.4,0,2.7-0.4,3.9-1.2C65.2,41.3,66.3,36.6,64,33.1z"/>
	<path class="st0" d="M46.7,39.7c-0.2,0-0.4-0.1-0.6-0.2l-0.8,1.8c0.3,0.1,0.6,0.2,1,0.3c0.4,0.1,0.8,0.1,1.2,0.1
		c1.9,0,3.7-1,4.7-2.6c0.6,0.3,1.2,0.6,1.9,0.8c0.4,0.1,0.9,0.1,1.3,0.1c1.9,0,3.7-0.9,4.8-2.4l-1.6-1.2c-1,1.3-2.6,1.8-4.1,1.5
		c-1.1-0.2-2-0.9-2.6-1.8c-0.6-0.9-0.8-2-0.5-3.1l-2-0.4c-0.4,1.9,0.1,3.7,1.2,5.1C49.9,39.2,48.3,40,46.7,39.7z"/>
	<path class="st0" d="M20.9,60.4v-9.6c0-0.5-0.3-0.9-0.8-1L15.9,49l4.8-9.7c0.1-0.1,0.1-0.3,0.1-0.4c0-11,9-20,20-20
		c5.4,0,10.4,2.1,14.2,5.9l1.4-1.4c-4.2-4.2-9.7-6.5-15.6-6.5c-12.1,0-21.9,9.7-22,21.8l-5.3,10.6c-0.1,0.3-0.1,0.6,0,0.9
		c0.1,0.3,0.4,0.5,0.7,0.5l4.6,0.9v8.8c0,2.3,1.9,4.2,4.2,4.2h3.2v8.3h2v-8.3h3.5v-2H23C21.8,62.6,20.9,61.6,20.9,60.4z"/>
	<path class="st0" d="M37.2,54.7l-1.4,1.4l7.9,7.9v8.9h2v-9.3c0-0.3-0.1-0.5-0.3-0.7L37.2,54.7z"/>
	<path class="st0" d="M77.2,49.2l-5.3-10.6c-0.1-9.6-6.3-17.9-15.5-20.8l-0.6,1.9c8.4,2.6,14.1,10.3,14.1,19.1c0,0.2,0,0.3,0.1,0.4
		l4.8,9.7l-4.1,0.8c-0.5,0.1-0.8,0.5-0.8,1v9.6c0,1.2-1,2.2-2.2,2.2h-8.7v2h3.5v8.3h2v-8.3h3.2c2.3,0,4.2-1.9,4.2-4.2v-8.8l4.6-0.9
		c0.3-0.1,0.6-0.3,0.7-0.5C77.3,49.9,77.3,49.5,77.2,49.2z"/>
</g>
</svg>
