<?xml version="1.0" encoding="utf-8"?>
<!-- Generator: Adobe Illustrator 22.0.1, SVG Export Plug-In . SVG Version: 6.00 Build 0)  -->
<svg version="1.1" id="Ebene_1" xmlns="http://www.w3.org/2000/svg" xmlns:xlink="http://www.w3.org/1999/xlink" x="0px" y="0px"
	 viewBox="0 0 90.7 90.7" style="enable-background:new 0 0 90.7 90.7;" xml:space="preserve">
<style type="text/css">
	.st0{fill:#36BDA1;}
	.st1{fill:#1D1D1B;}
</style>
<circle class="st0" cx="45.4" cy="45.4" r="35.4"/>
<g>
	<path class="st1" d="M64.7,34.6c-0.9,0-1.7,0.6-2,1.4h-5.3l-7.3,7.3v-4.7c0.8-0.3,1.4-1.1,1.4-2c0-1.2-1-2.1-2.1-2.1
		s-2.1,1-2.1,2.1c0,0.9,0.6,1.7,1.4,2v6.1v1v16.4l2.9,2.9c-0.1,0.3-0.2,0.6-0.2,0.9c0,1.2,1,2.1,2.1,2.1s2.1-1,2.1-2.1
		c0-1.2-1-2.1-2.1-2.1c-0.3,0-0.7,0.1-0.9,0.2l-2.5-2.5V45.7h5.6c0.3,0.8,1.1,1.4,2,1.4c1.2,0,2.1-1,2.1-2.1c0-1.2-1-2.1-2.1-2.1
		c-0.9,0-1.7,0.6-2,1.4h-4.6l6.9-6.9h4.7c0.3,0.8,1.1,1.4,2,1.4c1.2,0,2.1-1,2.1-2.1S65.9,34.6,64.7,34.6z M49.4,35.9
		c0.4,0,0.8,0.3,0.8,0.8s-0.3,0.8-0.8,0.8s-0.8-0.3-0.8-0.8S49,35.9,49.4,35.9z M53.6,65.2c0.4,0,0.8,0.3,0.8,0.8
		c0,0.4-0.3,0.8-0.8,0.8s-0.8-0.3-0.8-0.8C52.8,65.5,53.2,65.2,53.6,65.2z M57.7,44.3c0.4,0,0.8,0.3,0.8,0.8c0,0.4-0.3,0.8-0.8,0.8
		s-0.8-0.3-0.8-0.8C56.9,44.6,57.2,44.3,57.7,44.3z M64.7,37.5c-0.4,0-0.8-0.3-0.8-0.8s0.3-0.8,0.8-0.8s0.8,0.3,0.8,0.8
		S65.1,37.5,64.7,37.5z"/>
	<path class="st1" d="M38.4,39.1c-0.8-0.8-2.2-0.8-3,0c-0.8,0.8-0.8,2.2,0,3c0.4,0.4,0.9,0.6,1.5,0.6c0.3,0,0.6-0.1,0.9-0.2l1.8,1.8
		H35c-0.3-0.8-1.1-1.4-2-1.4c-1.2,0-2.1,1-2.1,2.1c0,1.2,1,2.1,2.1,2.1c0.9,0,1.7-0.6,2-1.4h5.6v15.8l-2.5,2.5
		c-0.8-0.4-1.8-0.2-2.4,0.4c-0.8,0.8-0.8,2.2,0,3c0.4,0.4,0.9,0.6,1.5,0.6s1.1-0.2,1.5-0.6c0.4-0.4,0.6-0.9,0.6-1.5
		c0-0.3-0.1-0.6-0.2-0.9l2.9-2.9V44.8l-3.2-3.2C39.1,40.8,39,39.8,38.4,39.1z M37.7,66.5c-0.3,0.3-0.8,0.3-1.1,0
		c-0.3-0.3-0.3-0.8,0-1.1c0.1-0.1,0.3-0.2,0.5-0.2s0.4,0.1,0.5,0.2v0c0.1,0.1,0.2,0.3,0.2,0.5C37.9,66.1,37.8,66.3,37.7,66.5z
		 M36.3,41.2c-0.3-0.3-0.3-0.8,0-1.1c0.1-0.1,0.3-0.2,0.5-0.2c0.2,0,0.4,0.1,0.5,0.2c0.3,0.3,0.3,0.8,0,1.1
		C37.1,41.5,36.6,41.5,36.3,41.2z M33,45.8c-0.4,0-0.8-0.3-0.8-0.8c0-0.4,0.3-0.8,0.8-0.8s0.8,0.3,0.8,0.8
		C33.8,45.5,33.5,45.8,33,45.8z"/>
	<path class="st1" d="M46,64V34.4l3.8-3.8h7.3c0.3,0.8,1.1,1.4,2,1.4c1.2,0,2.1-1,2.1-2.1c0-1.2-1-2.1-2.1-2.1c-0.9,0-1.7,0.6-2,1.4
		h-6l2.9-2.9c0.3,0.1,0.6,0.2,0.9,0.2c0.5,0,1.1-0.2,1.5-0.6c0.8-0.8,0.8-2.2,0-3c-0.8-0.8-2.2-0.8-3,0c-0.4,0.4-0.6,0.9-0.6,1.5
		c0,0.3,0.1,0.6,0.2,0.9L46,32.5v-7.9c0.8-0.3,1.4-1.1,1.4-2c0-1.2-1-2.1-2.1-2.1s-2.1,1-2.1,2.1c0,0.9,0.6,1.7,1.4,2v14.7l-5.6-5.6
		v-4c0.8-0.3,1.4-1.1,1.4-2c0-1.2-1-2.1-2.1-2.1s-2.1,1-2.1,2.1c0,0.9,0.6,1.7,1.4,2v2.7L34,28.7c0.4-0.8,0.3-1.8-0.4-2.4v0
		c-0.8-0.8-2.2-0.8-3,0s-0.8,2.2,0,3c0.4,0.4,1,0.6,1.5,0.6c0.3,0,0.6-0.1,0.9-0.2l6.5,6.5H28c-0.3-0.8-1.1-1.4-2-1.4
		c-1.2,0-2.1,1-2.1,2.1s1,2.1,2.1,2.1c0.9,0,1.7-0.6,2-1.4h12.9l3.8,3.8V64c-0.3,0.1-0.6,0.3-0.8,0.5c-0.8,0.8-0.8,2.2,0,3
		c0.4,0.4,0.9,0.6,1.5,0.6c0.6,0,1.1-0.2,1.5-0.6c0.8-0.8,0.8-2.2,0-3C46.6,64.2,46.3,64.1,46,64z M59.2,29.2c0.4,0,0.8,0.3,0.8,0.8
		c0,0.4-0.3,0.8-0.8,0.8s-0.8-0.3-0.8-0.8C58.4,29.6,58.7,29.2,59.2,29.2z M54.5,24c0.1-0.1,0.3-0.2,0.5-0.2s0.4,0.1,0.5,0.2
		c0.3,0.3,0.3,0.8,0,1.1c-0.3,0.3-0.8,0.3-1.1,0c-0.1-0.1-0.2-0.3-0.2-0.5C54.2,24.3,54.3,24.1,54.5,24z M38.4,27
		c0.4,0,0.8,0.3,0.8,0.8s-0.3,0.8-0.8,0.8s-0.8-0.3-0.8-0.8S38,27,38.4,27z M26,37.5c-0.4,0-0.8-0.3-0.8-0.8S25.6,36,26,36
		s0.8,0.3,0.8,0.8S26.4,37.5,26,37.5z M31.6,28.3c-0.3-0.3-0.3-0.8,0-1.1c0.1-0.1,0.3-0.2,0.5-0.2c0.2,0,0.4,0.1,0.5,0.2
		c0.3,0.3,0.3,0.8,0,1.1S31.9,28.6,31.6,28.3z M45.4,21.9c0.4,0,0.8,0.3,0.8,0.8c0,0.4-0.3,0.8-0.8,0.8s-0.8-0.3-0.8-0.8
		C44.6,22.2,44.9,21.9,45.4,21.9z M45.9,66.5c-0.3,0.3-0.8,0.3-1.1,0c-0.3-0.3-0.3-0.8,0-1.1c0.1-0.1,0.3-0.2,0.5-0.2
		c0.2,0,0.4,0.1,0.5,0.2C46.2,65.7,46.2,66.2,45.9,66.5z"/>
</g>
</svg>
