<?xml version="1.0" encoding="utf-8"?>
<!-- Generator: Adobe Illustrator 22.0.1, SVG Export Plug-In . SVG Version: 6.00 Build 0)  -->
<svg version="1.1" id="Ebene_1" xmlns="http://www.w3.org/2000/svg" xmlns:xlink="http://www.w3.org/1999/xlink" x="0px" y="0px"
	 viewBox="0 0 90.7 90.7" style="enable-background:new 0 0 90.7 90.7;" xml:space="preserve">
<style type="text/css">
	.st0{fill:#36BDA1;}
	.st1{fill:#1D1D1B;}
</style>
<g>
	<circle class="st0" cx="45.4" cy="45.4" r="35.4"/>
	<g>
		<path class="st1" d="M59.3,42.3l-2.3,2.3c-0.3,0.3-0.3,0.7,0,1l2.3,2.3l1-1l-1.1-1.1h3c0.4,0,0.7-0.3,0.7-0.7v-5.8h-1.4v5.1h-2.3
			l1.1-1.1L59.3,42.3z"/>
		<path class="st1" d="M57.1,51.9c-4.5,0-8.2,3.7-8.2,8.2c0,4.5,3.7,8.2,8.2,8.2c4.5,0,8.2-3.7,8.2-8.2
			C65.3,55.6,61.6,51.9,57.1,51.9z M57.1,67c-3.8,0-6.9-3.1-6.9-6.9c0-3.8,3.1-6.9,6.9-6.9c3.8,0,6.9,3.1,6.9,6.9
			C63.9,63.9,60.9,67,57.1,67z"/>
		<path class="st1" d="M31.1,50.7c-3.5,0-6.3,2.8-6.3,6.3s2.8,6.3,6.3,6.3s6.3-2.8,6.3-6.3S34.6,50.7,31.1,50.7z M31.1,62
			c-2.7,0-5-2.2-5-5c0-2.7,2.2-5,5-5s5,2.2,5,5C36,59.8,33.8,62,31.1,62z"/>
		<path class="st1" d="M62.2,27.2c-3,0-5.4,2.4-5.4,5.4s2.4,5.4,5.4,5.4c3,0,5.4-2.4,5.4-5.4S65.2,27.2,62.2,27.2z M62.2,36.6
			c-2.2,0-4-1.8-4-4c0-2.2,1.8-4,4-4c2.2,0,4,1.8,4,4C66.2,34.8,64.4,36.6,62.2,36.6z"/>
		<path class="st1" d="M38.6,24.7c1.7,0,3.1,1.4,3.1,3.1c0,1.6-1.2,2.9-2.8,3.1l0.1,1.4c2.3-0.2,4.1-2.1,4.1-4.4
			c0-2.5-2-4.4-4.4-4.4c-0.7,0-1.4,0.2-2,0.5l0.6,1.2C37.6,24.9,38.1,24.7,38.6,24.7z"/>
		<path class="st1" d="M30.4,23c-4,0-7.3,3.3-7.3,7.3c0,4,3.3,7.3,7.3,7.3c4,0,7.3-3.3,7.3-7.3C37.7,26.3,34.4,23,30.4,23z
			 M30.4,36.2c-3.3,0-5.9-2.7-5.9-5.9c0-3.3,2.7-5.9,5.9-5.9s5.9,2.7,5.9,5.9C36.3,33.5,33.7,36.2,30.4,36.2z"/>
		<path class="st1" d="M43.9,55.1l1.1,1.1l1-1L43.7,53c-0.3-0.3-0.7-0.3-1,0l-2.3,2.3l1,1l1.1-1.1v5c0,0.4,0.3,0.7,0.7,0.7h4.3v-1.4
			h-3.6V55.1z"/>
		<path class="st1" d="M48.1,31.5L47,30.4l-1,1l2.3,2.3c0.1,0.1,0.3,0.2,0.5,0.2c0.2,0,0.3-0.1,0.5-0.2l2.3-2.3l-1-1l-1.1,1.1v-3.7
			c0-0.4-0.3-0.7-0.7-0.7h-4.5v1.4h3.8V31.5z"/>
		<path class="st1" d="M30.4,42.6v6.8h1.4v-6.2h1.9l-1.1,1.1l1,1l2.3-2.3c0.1-0.1,0.2-0.3,0.2-0.5c0-0.2-0.1-0.4-0.2-0.5l-2.3-2.3
			l-1,1l1.1,1.1h-2.6C30.7,41.9,30.4,42.2,30.4,42.6z"/>
		<path class="st1" d="M54.8,50.2V39.2c0-0.4-0.3-0.7-0.7-0.7H41.2v1.4h12.3v9.6H40c-0.5,0-0.8-0.4-0.8-0.8V38.1
			c0-0.5,0.4-0.8,0.8-0.8h12.8v-1.4H40c-1.2,0-2.2,1-2.2,2.2v10.6c0,1.2,1,2.2,2.2,2.2h14.2C54.5,50.9,54.8,50.5,54.8,50.2z"/>
		<path class="st1" d="M45.6,40.9v0.8h-1.1c-1,0-1.8,0.8-1.8,1.8c0,1,0.8,1.8,1.8,1.8h3.6c0.3,0,0.5,0.2,0.5,0.5
			c0,0.3-0.2,0.5-0.5,0.5h-4.9v1.4h2.4v0.8H47v-0.8h1.1c1,0,1.8-0.8,1.8-1.8c0-1-0.8-1.8-1.8-1.8h-3.6c-0.3,0-0.5-0.2-0.5-0.5
			c0-0.3,0.2-0.5,0.5-0.5h4.9v-1.4H47v-0.8H45.6z"/>
	</g>
</g>
</svg>
