<?xml version="1.0" encoding="utf-8"?>
<!-- Generator: Adobe Illustrator 22.0.1, SVG Export Plug-In . SVG Version: 6.00 Build 0)  -->
<svg version="1.1" id="Ebene_1" xmlns="http://www.w3.org/2000/svg" xmlns:xlink="http://www.w3.org/1999/xlink" x="0px" y="0px"
	 viewBox="0 0 90.7 90.7" style="enable-background:new 0 0 90.7 90.7;" xml:space="preserve">
<style type="text/css">
	.st0{fill:#36BDA1;}
	.st1{fill:#1D1D1B;}
</style>
<g>
	<circle class="st0" cx="45.4" cy="45.4" r="35.4"/>
	<g>
		<path class="st1" d="M49.1,65.9h-7.5V46.2h-1.4v20.4c0,0.4,0.3,0.7,0.7,0.7h8.9c0.4,0,0.7-0.3,0.7-0.7v-9.5h-1.4V65.9z"/>
		<rect x="44.7" y="52.8" class="st1" width="1.4" height="10.3"/>
		<path class="st1" d="M63.5,52.8c-0.5-0.5-1.9-1.8-2.9-2.8c-7.6-7.6-10-11.6-10.2-17.3h5.7c0.3,0,0.5-0.2,0.6-0.4
			c0.1-0.3,0-0.5-0.1-0.7L45.8,20.7c-0.3-0.3-0.7-0.3-1,0L34,31.6c-0.2,0.2-0.3,0.5-0.1,0.7c0.1,0.3,0.4,0.4,0.6,0.4l5.8,0
			c0.2,9.8,4.6,16,13.2,24.5c1.3,1.3,3.1,3,3.1,3c0.1,0.1,0.3,0.2,0.5,0.2c0.2,0,0.4-0.1,0.5-0.2l6.1-6.4
			C63.8,53.6,63.8,53.1,63.5,52.8z M57,58.8c-0.6-0.6-1.7-1.6-2.6-2.5c-8.5-8.5-12.8-14.5-12.8-24.2c0-0.4-0.3-0.7-0.7-0.7h-4.8
			l9.2-9.2l9.2,9.2l-4.8,0c-0.4,0-0.7,0.3-0.7,0.7c0,6.5,2.4,10.7,10.6,19c0.8,0.8,1.8,1.7,2.4,2.4L57,58.8z"/>
		<path class="st1" d="M46,32.1h-1.4c0,7.8,2.8,13,11.9,22.1c0.2,0.2,0.4,0.4,0.6,0.6l1-1c-0.2-0.2-0.4-0.4-0.6-0.6
			C48.7,44.4,46,39.4,46,32.1z"/>
		<path class="st1" d="M39,41.5c0.2-0.4,0.5-0.8,0.7-1.2l-1.2-0.6c-0.2,0.4-0.4,0.7-0.6,1.1l0,0c-0.2,0.3-0.4,0.6-0.5,0.9
			c-1.5,2.3-3.8,4.9-7.3,8.4c-1,1-2.3,2.3-2.9,2.8c-0.3,0.3-0.3,0.7,0,1l6.1,6.4c0.1,0.1,0.3,0.2,0.5,0.2c0.2,0,0.3-0.1,0.5-0.2
			c0,0,1.8-1.7,3.1-3c0.4-0.4,0.8-0.8,1.1-1.1l-1-0.9c-0.4,0.4-0.7,0.7-1.1,1.1c-0.9,0.9-1.9,1.9-2.6,2.5l-5.1-5.4
			c0.7-0.6,1.6-1.6,2.4-2.4c3.6-3.6,5.9-6.2,7.4-8.6C38.7,42.1,38.9,41.8,39,41.5"/>
		<path class="st1" d="M32.6,53.8l1,1l0.6-0.6c1.7-1.7,3.1-3.1,4.3-4.5l-1-0.9c-1.2,1.3-2.5,2.8-4.2,4.4L32.6,53.8z"/>
	</g>
</g>
</svg>
