<?xml version="1.0" encoding="utf-8"?>
<!-- Generator: Adobe Illustrator 22.0.1, SVG Export Plug-In . SVG Version: 6.00 Build 0)  -->
<svg version="1.1" id="Ebene_1" xmlns="http://www.w3.org/2000/svg" xmlns:xlink="http://www.w3.org/1999/xlink" x="0px" y="0px"
	 viewBox="0 0 90.7 90.7" style="enable-background:new 0 0 90.7 90.7;" xml:space="preserve">
<style type="text/css">
	.st0{fill:#36BDA1;}
	.st1{fill:#1D1D1B;}
</style>
<g>
	<circle class="st0" cx="45.4" cy="45.4" r="35.4"/>
	<g>
		<path class="st1" d="M60.6,32.5c0-0.2-0.1-0.4-0.2-0.5l-6.7-6.7c-0.1-0.1-0.3-0.2-0.5-0.2v0H30.8c-0.4,0-0.7,0.3-0.7,0.7v26.7h1.4
			v-26h21v6.1c0,0.4,0.3,0.7,0.7,0.7h6.1v29.5H33.3V64h26.6c0.4,0,0.7-0.3,0.7-0.7L60.6,32.5L60.6,32.5z M53.8,31.8v-4.4l4.4,4.4
			H53.8z"/>
		
			<rect x="39.6" y="43.8" transform="matrix(0.3828 -0.9238 0.9238 0.3828 -13.117 69.3656)" class="st1" width="11.5" height="1.4"/>
		<path class="st1" d="M45.4,56c3,0,5.9-1.1,8.1-3.4c4.5-4.5,4.5-11.8,0-16.3c-4.5-4.5-11.8-4.5-16.3,0c-3.8,3.8-4.4,9.7-1.7,14.1
			L24.4,61.6c-0.1,0.1-0.2,0.3-0.2,0.5c0,0.2,0.1,0.4,0.2,0.5l2.9,2.9c0.1,0.1,0.3,0.2,0.5,0.2s0.3-0.1,0.5-0.2l11.1-11.1
			C41.2,55.4,43.3,56,45.4,56z M38.2,37.3c2-2,4.6-3,7.2-3c2.6,0,5.2,1,7.2,3c4,4,4,10.4,0,14.4c-4,4-10.4,4-14.4,0
			C34.2,47.7,34.2,41.3,38.2,37.3z M27.8,64l-1.9-1.9l10.3-10.3l1.9,1.9L27.8,64z"/>
		<path class="st1" d="M49.7,48.3L53,45c0.3-0.3,0.3-0.7,0-1l-3.4-3.4l-1,1l2.9,2.9l-2.9,2.9L49.7,48.3z"/>
		<path class="st1" d="M42,47.4l-2.9-2.9l2.9-2.9l-1-1L37.7,44c-0.1,0.1-0.2,0.3-0.2,0.5c0,0.2,0.1,0.4,0.2,0.5l3.4,3.4L42,47.4z"/>
	</g>
</g>
</svg>
