<?xml version="1.0" encoding="utf-8"?>
<!-- Generator: Adobe Illustrator 22.0.1, SVG Export Plug-In . SVG Version: 6.00 Build 0)  -->
<svg version="1.1" id="Ebene_1" xmlns="http://www.w3.org/2000/svg" xmlns:xlink="http://www.w3.org/1999/xlink" x="0px" y="0px"
	 viewBox="0 0 90.7 90.7" style="enable-background:new 0 0 90.7 90.7;" xml:space="preserve">
<style type="text/css">
	.st0{fill:#36BDA1;}
	.st1{fill:#1D1D1B;}
</style>
<g>
	<circle class="st0" cx="45.4" cy="45.4" r="35.4"/>
	<g>
		<path class="st1" d="M33.2,27.3h-1.4v38.2c0,0.4,0.3,0.7,0.7,0.7h12.2v-1.4H33.2V27.3z"/>
		<path class="st1" d="M61.6,27.3H43v1.4h18v36.2h-2.7v1.4h3.4c0.4,0,0.7-0.3,0.7-0.7V28C62.3,27.6,62,27.3,61.6,27.3z"/>
		<path class="st1" d="M37.5,23.8h-0.9c0-0.8,0.7-1.5,1.5-1.5c0.8,0,1.5,0.7,1.5,1.5v4.8c0,0.8-0.7,1.5-1.5,1.5
			c-0.8,0-1.5-0.7-1.5-1.5v-2.4h-1.4v2.4c0,1.6,1.3,2.8,2.8,2.8c1.6,0,2.8-1.3,2.8-2.8v-4.8c0-1.6-1.3-2.8-2.8-2.8
			c-1.6,0-2.8,1.3-2.8,2.8h-6.2c-0.4,0-0.7,0.3-0.7,0.7v38.2h1.4V25.2h7.8V23.8z"/>
		<rect x="43" y="23.8" class="st1" width="15.9" height="1.4"/>
		<rect x="38" y="51.2" class="st1" width="18.2" height="1.4"/>
		<path class="st1" d="M46.4,32.6v1.7l-8,5.8c-0.2,0.2-0.3,0.5-0.3,0.8c0.1,0.3,0.4,0.5,0.6,0.5H41v7.1h-1.4v1.4h15v-1.4h-1.4v-7.1
			h2.2c0.3,0,0.6-0.2,0.6-0.5c0.1-0.3,0-0.6-0.3-0.8l-8-5.8v-1.7H46.4z M42.3,41.2h4.1v7.1h-4.1V41.2z M51.9,48.3h-4.1v-7.1h4.1
			V48.3z M40.9,39.9l6.2-4.4l6.2,4.4H40.9z"/>
		<path class="st1" d="M55.5,61.4h-6.1v-1.6c0-1.2,0.9-2.1,2.1-2.1c1.2,0,2.1,0.9,2.1,2.1h1.4c0-1.9-1.5-3.5-3.5-3.5
			c-1.9,0-3.5,1.5-3.5,3.5v1.6h-0.6c-0.4,0-0.7,0.3-0.7,0.7V69c0,0.4,0.3,0.7,0.7,0.7h8c0.4,0,0.7-0.3,0.7-0.7v-6.9
			C56.2,61.7,55.9,61.4,55.5,61.4z M54.8,68.3h-6.7v-5.5h6.7V68.3z"/>
		<rect x="50.8" y="64.9" class="st1" width="1.4" height="1.4"/>
	</g>
</g>
</svg>
