<?xml version="1.0" encoding="utf-8"?>
<!-- Generator: Adobe Illustrator 22.0.1, SVG Export Plug-In . SVG Version: 6.00 Build 0)  -->
<svg version="1.1" id="Ebene_1" xmlns="http://www.w3.org/2000/svg" xmlns:xlink="http://www.w3.org/1999/xlink" x="0px" y="0px"
	 viewBox="0 0 90.7 90.7" style="enable-background:new 0 0 90.7 90.7;" xml:space="preserve">
<style type="text/css">
	.st0{fill:#36BDA1;}
	.st1{fill:#1D1D1B;}
</style>
<g>
	<circle class="st0" cx="45.4" cy="45.4" r="35.4"/>
	<g>
		<path class="st1" d="M45.4,29.4c-8.8,0-16,7.2-16,16h1.4c0-8.1,6.6-14.6,14.6-14.6V29.4z"/>
		<path class="st1" d="M45.4,25.4c-11,0-20,9-20,20c0,7.8,4.6,15,11.7,18.2c0.1,0,0.2,0.1,0.3,0.1c0.1,0,0.2,0,0.2,0
			c0.2-0.1,0.3-0.2,0.4-0.4l4.3-10.4l-1.3-0.5L37.1,62c-6.3-3.1-10.3-9.6-10.3-16.6c0-10.3,8.3-18.6,18.6-18.6
			c10.3,0,18.6,8.3,18.6,18.6c0,6.2-3.1,12-8.3,15.5l0.8,1.1c5.6-3.7,8.9-9.9,8.9-16.6C65.3,34.4,56.4,25.4,45.4,25.4z"/>
		<path class="st1" d="M54,45.4c0-4.8-3.9-8.7-8.7-8.7c-4.8,0-8.7,3.9-8.7,8.7c0,2.2,0.8,4.2,2.2,5.8l1-0.9
			c-1.2-1.3-1.9-3.1-1.9-4.9c0-4,3.3-7.3,7.3-7.3c4,0,7.3,3.3,7.3,7.3c0,2.8-1.5,5.3-4,6.5c-0.3,0.2-0.5,0.5-0.3,0.9l4.3,10.4
			l1.3-0.5l-4.1-9.9C52.4,51.2,54,48.4,54,45.4z"/>
	</g>
</g>
</svg>
