<?xml version="1.0" encoding="utf-8"?>
<!-- Generator: Adobe Illustrator 22.0.1, SVG Export Plug-In . SVG Version: 6.00 Build 0)  -->
<svg version="1.1" id="Ebene_1" xmlns="http://www.w3.org/2000/svg" xmlns:xlink="http://www.w3.org/1999/xlink" x="0px" y="0px"
	 viewBox="0 0 90.7 90.7" style="enable-background:new 0 0 90.7 90.7;" xml:space="preserve">
<style type="text/css">
	.st0{fill:#1D1D1B;}
</style>
<g>
	<path class="st0" d="M40,73.2c5.8,0,10.5-4.7,10.5-10.5S45.8,52.3,40,52.3S29.6,57,29.6,62.7S34.3,73.2,40,73.2z M40,54.3
		c4.7,0,8.5,3.8,8.5,8.5s-3.8,8.5-8.5,8.5s-8.5-3.8-8.5-8.5S35.4,54.3,40,54.3z"/>
	<path class="st0" d="M43.9,66.5c1,0,1.9-0.4,2.7-1.1L45.2,64c-0.7,0.7-1.9,0.7-2.5,0c-0.3-0.3-0.5-0.8-0.5-1.3s0.2-0.9,0.5-1.3
		c0.7-0.7,1.9-0.7,2.5,0l1.4-1.4c-1.5-1.5-3.9-1.5-5.4,0c-1.5,1.5-1.5,3.9,0,5.4C42,66.2,42.9,66.5,43.9,66.5z"/>
	<path class="st0" d="M37,66.5c1,0,2-0.4,2.7-1.1L38.2,64c-0.7,0.7-1.9,0.7-2.5,0c-0.7-0.7-0.7-1.8,0-2.5c0.7-0.7,1.9-0.7,2.5,0
		l1.4-1.4c-1.4-1.4-3.9-1.4-5.4,0c-1.5,1.5-1.5,3.9,0,5.4C35,66.1,36,66.5,37,66.5z"/>
	<path class="st0" d="M71.2,37.4H65v2h3.8l-8.7,8.7H21.9l4.8-4.8l-1.4-1.4l-6.5,6.5c-0.2,0.2-0.3,0.4-0.3,0.7v27.3c0,0.6,0.4,1,1,1
		h41c0.3,0,0.5-0.1,0.7-0.3l10.7-10.7c0.2-0.2,0.3-0.4,0.3-0.7V38.4C72.2,37.9,71.7,37.4,71.2,37.4z M59.5,75.4h-39V50.1h39V75.4z
		 M61.5,74V49.5l8.7-8.7v24.4L61.5,74z"/>
	<path class="st0" d="M35.1,35c-0.3-0.2-0.7-0.2-1,0c-0.3,0.2-0.5,0.5-0.5,0.9v7.2c0,0.4,0.2,0.7,0.5,0.9c0.2,0.1,0.3,0.1,0.5,0.1
		s0.3,0,0.5-0.1l6.3-3.6c0.3-0.2,0.5-0.5,0.5-0.9s-0.2-0.7-0.5-0.9L35.1,35z M35.6,41.3v-3.8l3.3,1.9L35.6,41.3z"/>
	<path class="st0" d="M30.7,31.8h12.7v13.4h2V27.9H60v14.7h2V26.9c0-0.6-0.4-1-1-1h-6.4V14.5c0-0.6-0.4-1-1-1H37c-0.6,0-1,0.4-1,1
		v15.3h-6.4c-0.6,0-1,0.4-1,1v14.4h2V31.8z M52.7,15.5v4.2l-2.6-2.6c-0.4-0.4-1-0.4-1.4,0L44,21.9l-2.6-2.6c-0.4-0.4-1-0.4-1.4,0
		L38,21.2v-5.7H52.7z M38,24l2.6-2.7l2.6,2.6c0.4,0.4,1,0.4,1.4,0l4.7-4.7l3.3,3.3v3.4h-8.3c-0.6,0-1,0.4-1,1v2.9H38V24z"/>
	<path class="st0" d="M53.7,30.4c-0.6,0-1,0.4-1,1v5.1c-0.4-0.1-0.7-0.2-1.1-0.2c-1.7,0-3.1,1.4-3.1,3.1c0,1.7,1.4,3.1,3.1,3.1
		s3.1-1.4,3.1-3.1v-5.2c0.6,0.3,1.3,0.4,2.3,0.4v-2c-2.1,0-2.2-1.1-2.3-1.3C54.7,30.9,54.3,30.4,53.7,30.4z M51.6,40.6
		c-0.6,0-1.1-0.5-1.1-1.1c0-0.6,0.5-1.1,1.1-1.1c0.6,0,1.1,0.5,1.1,1.1C52.7,40.1,52.2,40.6,51.6,40.6z"/>
</g>
</svg>
