<?xml version="1.0" encoding="utf-8"?>
<!-- Generator: Adobe Illustrator 22.0.1, SVG Export Plug-In . SVG Version: 6.00 Build 0)  -->
<svg version="1.1" id="Ebene_1" xmlns="http://www.w3.org/2000/svg" xmlns:xlink="http://www.w3.org/1999/xlink" x="0px" y="0px"
	 viewBox="0 0 90.7 90.7" style="enable-background:new 0 0 90.7 90.7;" xml:space="preserve">
<style type="text/css">
	.st0{fill:#1D1D1B;}
	.st1{fill:#36BDA1;}
</style>
<g>
	<g>
		<polygon class="st0" points="33.6,42.2 36.9,45.5 29.3,45.5 29.3,47.5 38.4,47.5 38.4,70.7 34,75.1 35.4,76.5 40.4,71.6 
			40.4,46.1 35,40.8 		"/>
		<polygon class="st0" points="63.1,33.3 52.4,44.1 52.4,36.3 50.4,36.3 50.4,46.1 50.4,47.5 50.4,71.6 55.3,76.5 56.7,75.1 
			52.4,70.7 52.4,47.5 61.4,47.5 61.4,45.5 53.8,45.5 64,35.3 71.7,35.3 71.7,33.3 		"/>
		<polygon class="st0" points="63.6,25.3 63.6,23.3 53.9,23.3 58.8,18.5 57.3,17 46.4,28 46.4,15.6 44.4,15.6 44.4,38.1 36.1,29.8 
			36.1,23.1 34.1,23.1 34.1,27.8 28,21.7 26.6,23.2 36.7,33.3 19,33.3 19,35.3 38.7,35.3 44.4,40.9 44.4,75.1 46.4,75.1 46.4,30.9 
			51.9,25.3 		"/>
	</g>
	<g>
		<path class="st1" d="M45.4,16.6c1.7,0,3.1-1.4,3.1-3.1s-1.4-3.1-3.1-3.1s-3.1,1.4-3.1,3.1S43.6,16.6,45.4,16.6z M45.4,12.3
			c0.6,0,1.1,0.5,1.1,1.1s-0.5,1.1-1.1,1.1s-1.1-0.5-1.1-1.1S44.7,12.3,45.4,12.3z"/>
		<path class="st1" d="M73.9,31.1c-1.7,0-3.1,1.4-3.1,3.1s1.4,3.1,3.1,3.1S77,36,77,34.3S75.6,31.1,73.9,31.1z M73.9,35.4
			c-0.6,0-1.1-0.5-1.1-1.1s0.5-1.1,1.1-1.1s1.1,0.5,1.1,1.1S74.5,35.4,73.9,35.4z"/>
		<path class="st1" d="M16.9,31.1c-1.7,0-3.1,1.4-3.1,3.1s1.4,3.1,3.1,3.1S20,36,20,34.3S18.6,31.1,16.9,31.1z M16.9,35.4
			c-0.6,0-1.1-0.5-1.1-1.1s0.5-1.1,1.1-1.1s1.1,0.5,1.1,1.1S17.5,35.4,16.9,35.4z"/>
		<path class="st1" d="M35.1,17.8c-1.7,0-3.1,1.4-3.1,3.1s1.4,3.1,3.1,3.1s3.1-1.4,3.1-3.1S36.9,17.8,35.1,17.8z M35.1,22.1
			c-0.6,0-1.1-0.5-1.1-1.1s0.5-1.1,1.1-1.1s1.1,0.5,1.1,1.1S35.8,22.1,35.1,22.1z"/>
		<path class="st1" d="M65.7,21.2c-1.7,0-3.1,1.4-3.1,3.1s1.4,3.1,3.1,3.1s3.1-1.4,3.1-3.1S67.4,21.2,65.7,21.2z M65.7,25.4
			c-0.6,0-1.1-0.5-1.1-1.1s0.5-1.1,1.1-1.1s1.1,0.5,1.1,1.1S66.3,25.4,65.7,25.4z"/>
		<path class="st1" d="M51.4,31.1c-1.7,0-3.1,1.4-3.1,3.1s1.4,3.1,3.1,3.1s3.1-1.4,3.1-3.1S53.1,31.1,51.4,31.1z M51.4,35.3
			c-0.6,0-1.1-0.5-1.1-1.1s0.5-1.1,1.1-1.1s1.1,0.5,1.1,1.1S52,35.3,51.4,35.3z"/>
		<path class="st1" d="M63.5,43.3c-1.7,0-3.1,1.4-3.1,3.1s1.4,3.1,3.1,3.1s3.1-1.4,3.1-3.1S65.2,43.3,63.5,43.3z M63.5,47.6
			c-0.6,0-1.1-0.5-1.1-1.1s0.5-1.1,1.1-1.1s1.1,0.5,1.1,1.1S64.1,47.6,63.5,47.6z"/>
		<path class="st1" d="M27.2,43.3c-1.7,0-3.1,1.4-3.1,3.1s1.4,3.1,3.1,3.1s3.1-1.4,3.1-3.1S28.9,43.3,27.2,43.3z M27.2,47.6
			c-0.6,0-1.1-0.5-1.1-1.1s0.5-1.1,1.1-1.1s1.1,0.5,1.1,1.1S27.8,47.6,27.2,47.6z"/>
		<path class="st1" d="M59.6,19.4c0.8,0,1.6-0.3,2.2-0.9c1.2-1.2,1.2-3.2,0-4.4c-1.2-1.2-3.2-1.2-4.4,0c-1.2,1.2-1.2,3.2,0,4.4
			C58,19.1,58.8,19.4,59.6,19.4z M58.8,15.5c0.2-0.2,0.5-0.3,0.8-0.3c0.3,0,0.6,0.1,0.8,0.3c0.4,0.4,0.4,1.2,0,1.6
			c-0.4,0.4-1.2,0.4-1.6,0C58.3,16.6,58.3,15.9,58.8,15.5z"/>
		<path class="st1" d="M31,75.1c-1.2,1.2-1.2,3.2,0,4.4c0.6,0.6,1.4,0.9,2.2,0.9s1.6-0.3,2.2-0.9c1.2-1.2,1.2-3.2,0-4.4
			C34.3,73.9,32.2,73.9,31,75.1z M34,78.1c-0.4,0.4-1.2,0.4-1.6,0c-0.4-0.4-0.4-1.2,0-1.6c0.2-0.2,0.5-0.3,0.8-0.3s0.6,0.1,0.8,0.3
			C34.5,76.9,34.5,77.6,34,78.1z"/>
		<path class="st1" d="M57.5,74.1c-1.7,0-3.1,1.4-3.1,3.1s1.4,3.1,3.1,3.1c1.7,0,3.1-1.4,3.1-3.1S59.2,74.1,57.5,74.1z M57.5,78.4
			c-0.6,0-1.1-0.5-1.1-1.1s0.5-1.1,1.1-1.1s1.1,0.5,1.1,1.1S58.1,78.4,57.5,78.4z"/>
		<path class="st1" d="M28,23.2c0.6-0.6,0.9-1.4,0.9-2.2s-0.3-1.6-0.9-2.2v0c-1.2-1.2-3.2-1.2-4.4,0c-0.6,0.6-0.9,1.4-0.9,2.2
			s0.3,1.6,0.9,2.2c0.6,0.6,1.4,0.9,2.2,0.9S27.4,23.8,28,23.2z M24.7,20.9c0-0.3,0.1-0.6,0.3-0.8c0.2-0.2,0.5-0.3,0.8-0.3
			s0.6,0.1,0.8,0.3v0c0.2,0.2,0.3,0.5,0.3,0.8s-0.1,0.6-0.3,0.8c-0.4,0.4-1.2,0.4-1.6,0C24.8,21.5,24.7,21.2,24.7,20.9z"/>
		<path class="st1" d="M32.8,43.1c0.8,0,1.6-0.3,2.2-0.9c1.2-1.2,1.2-3.2,0-4.4c-1.2-1.2-3.2-1.2-4.4,0c-1.2,1.2-1.2,3.2,0,4.4
			C31.2,42.8,32,43.1,32.8,43.1z M32,39.2c0.2-0.2,0.5-0.3,0.8-0.3c0.3,0,0.6,0.1,0.8,0.3c0.4,0.4,0.4,1.2,0,1.6
			c-0.4,0.4-1.2,0.4-1.6,0C31.6,40.3,31.6,39.6,32,39.2z"/>
		<path class="st1" d="M47.6,75.1c-1.2-1.2-3.2-1.2-4.4,0c-1.2,1.2-1.2,3.2,0,4.4c0.6,0.6,1.4,0.9,2.2,0.9s1.6-0.3,2.2-0.9
			C48.8,78.3,48.8,76.3,47.6,75.1L47.6,75.1z M46.2,78.1c-0.4,0.4-1.2,0.4-1.6,0c-0.4-0.4-0.4-1.2,0-1.6c0.2-0.2,0.5-0.3,0.8-0.3
			s0.6,0.1,0.8,0.3C46.6,76.9,46.6,77.6,46.2,78.1z"/>
	</g>
</g>
</svg>
