<?xml version="1.0" encoding="utf-8"?>
<!-- Generator: Adobe Illustrator 22.0.1, SVG Export Plug-In . SVG Version: 6.00 Build 0)  -->
<svg version="1.1" id="Ebene_1" xmlns="http://www.w3.org/2000/svg" xmlns:xlink="http://www.w3.org/1999/xlink" x="0px" y="0px"
	 viewBox="0 0 90.7 90.7" style="enable-background:new 0 0 90.7 90.7;" xml:space="preserve">
<style type="text/css">
	.st0{fill:#1D1D1B;}
	.st1{fill:none;stroke:#1D1D1B;stroke-width:2;stroke-linejoin:round;stroke-miterlimit:10;}
	.st2{fill:#36BDA1;}
</style>
<g>
	<g>
		<path class="st0" d="M50.9,77.8H39.8V48.7h-2v30.1c0,0.6,0.4,1,1,1h13.1c0.6,0,1-0.4,1-1v-14h-2V77.8z"/>
		<path class="st0" d="M72.1,58.5c-0.8-0.7-2.8-2.6-4.2-4.1c-11.2-11.2-14.7-17.1-15-25.5h8.5c0.4,0,0.8-0.2,0.9-0.6
			c0.2-0.4,0.1-0.8-0.2-1.1l-16-16c-0.4-0.4-1-0.4-1.4,0l-16,16c-0.3,0.3-0.4,0.7-0.2,1.1c0.2,0.4,0.5,0.6,0.9,0.6l8.5,0
			c0.3,14.4,6.8,23.5,19.4,36.1c1.9,1.9,4.5,4.4,4.5,4.4c0.2,0.2,0.4,0.3,0.7,0.3c0.3,0,0.5-0.1,0.7-0.3l9-9.4
			C72.5,59.5,72.5,58.9,72.1,58.5z M62.4,67.3c-0.9-0.9-2.5-2.4-3.8-3.7C46.2,51.1,39.9,42.2,39.9,27.9c0-0.6-0.4-1-1-1h-7.1
			l13.6-13.6l13.6,13.6l-7.1,0c-0.6,0-1,0.4-1,1c0,9.6,3.5,15.8,15.6,27.9c1.1,1.1,2.6,2.5,3.6,3.5L62.4,67.3z"/>
		<path class="st0" d="M36.1,41.8c0.3-0.6,0.7-1.1,1-1.7l-1.8-0.9c-0.3,0.5-0.6,1.1-0.9,1.6l0,0c-0.3,0.4-0.5,0.8-0.8,1.3
			c-2.2,3.4-5.5,7.2-10.7,12.4c-1.4,1.4-3.4,3.3-4.3,4.2c-0.4,0.4-0.4,1,0,1.4l9,9.4c0.2,0.2,0.5,0.3,0.7,0.3c0.2,0,0.5-0.1,0.7-0.3
			c0,0,2.6-2.5,4.5-4.4c0.6-0.6,1.1-1.1,1.6-1.7l-1.4-1.4c-0.5,0.5-1.1,1.1-1.6,1.6c-1.3,1.3-2.9,2.8-3.8,3.7l-7.6-8
			c1-0.9,2.4-2.3,3.6-3.5c5.3-5.3,8.6-9.2,11-12.7C35.5,42.7,35.8,42.2,36.1,41.8"/>
	</g>
	<g>
		<path class="st1" d="M42.4,53.7"/>
	</g>
	<g>
		<rect x="44.4" y="58.5" class="st2" width="2" height="15.1"/>
		<path class="st2" d="M63.3,59c-13-13-16.9-20.2-16.9-31.1h-2c0,11.5,4.1,19.1,17.5,32.5c0.3,0.3,0.6,0.6,0.9,0.9l1.4-1.4
			C63.8,59.5,63.5,59.3,63.3,59z"/>
		<path class="st2" d="M27.4,59c-0.3,0.3-0.6,0.6-0.9,0.8l1.4,1.4c0.3-0.3,0.6-0.6,0.9-0.9c2.5-2.5,4.5-4.6,6.3-6.6l-1.5-1.3
			C31.9,54.4,29.9,56.5,27.4,59z"/>
	</g>
</g>
</svg>
