<?xml version="1.0" encoding="utf-8"?>
<!-- Generator: Adobe Illustrator 22.0.1, SVG Export Plug-In . SVG Version: 6.00 Build 0)  -->
<svg version="1.1" id="Ebene_1" xmlns="http://www.w3.org/2000/svg" xmlns:xlink="http://www.w3.org/1999/xlink" x="0px" y="0px"
	 viewBox="0 0 90.7 90.7" style="enable-background:new 0 0 90.7 90.7;" xml:space="preserve">
<style type="text/css">
	.st0{fill:#1D1D1B;}
	.st1{fill:#36BDA1;}
</style>
<g>
	<g>
		<path class="st0" d="M40.4,25.6h10.4c0.6,0,1-0.4,1-1V14.2c0-0.6-0.4-1-1-1H40.4c-0.6,0-1,0.4-1,1v10.4
			C39.4,25.1,39.9,25.6,40.4,25.6z M41.4,15.2h8.4v8.4h-8.4V15.2z"/>
		<path class="st0" d="M40.4,51.9h10.4c0.6,0,1-0.4,1-1V40.5c0-0.6-0.4-1-1-1H40.4c-0.6,0-1,0.4-1,1v10.4
			C39.4,51.5,39.9,51.9,40.4,51.9z M41.4,41.5h8.4v8.4h-8.4V41.5z"/>
		<path class="st0" d="M73.7,52.7H63.3c-0.6,0-1,0.4-1,1v10.4c0,0.6,0.4,1,1,1h10.4c0.6,0,1-0.4,1-1V53.7
			C74.7,53.2,74.2,52.7,73.7,52.7z M72.7,63.1h-8.4v-8.4h8.4V63.1z"/>
		<path class="st0" d="M68.5,39.3c3.7,0,6.7-3,6.7-6.7s-3-6.7-6.7-6.7s-6.7,3-6.7,6.7S64.8,39.3,68.5,39.3z M68.5,27.8
			c2.6,0,4.7,2.1,4.7,4.7c0,2.6-2.1,4.7-4.7,4.7s-4.7-2.1-4.7-4.7C63.7,29.9,65.9,27.8,68.5,27.8z"/>
		<path class="st0" d="M22.8,52.2c-3.7,0-6.7,3-6.7,6.7s3,6.7,6.7,6.7c3.7,0,6.7-3,6.7-6.7S26.5,52.2,22.8,52.2z M22.8,63.7
			c-2.6,0-4.7-2.1-4.7-4.7c0-2.6,2.1-4.7,4.7-4.7s4.7,2.1,4.7,4.7C27.6,61.5,25.4,63.7,22.8,63.7z"/>
		<path class="st0" d="M46.5,65.1c-0.2-0.3-0.5-0.5-0.9-0.5s-0.7,0.2-0.9,0.5L38.5,76c-0.1,0.2-0.1,0.3-0.1,0.5s0,0.3,0.1,0.5
			c0.2,0.3,0.5,0.5,0.9,0.5H52c0.4,0,0.7-0.2,0.9-0.5c0.1-0.2,0.1-0.3,0.1-0.5s0-0.3-0.1-0.5L46.5,65.1z M41.1,75.5l4.6-7.9l4.6,7.9
			H41.1z"/>
		<path class="st0" d="M23.7,25.6c-0.4-0.6-1.4-0.6-1.7,0l-6.3,10.9c-0.1,0.2-0.1,0.3-0.1,0.5s0,0.3,0.1,0.5
			c0.2,0.3,0.5,0.5,0.9,0.5h12.6c0.4,0,0.7-0.2,0.9-0.5c0.1-0.2,0.1-0.3,0.1-0.5s0-0.3-0.1-0.5L23.7,25.6z M18.2,36l4.6-7.9l4.6,7.9
			H18.2z"/>
	</g>
	<g>
		<rect x="27.9" y="25.9" transform="matrix(0.866 -0.5 0.5 0.866 -9.0906 19.9005)" class="st1" width="9.3" height="2"/>
		<rect x="67.5" y="41.3" class="st1" width="2" height="9.2"/>
		<rect x="50.8" y="65.5" transform="matrix(0.8661 -0.4999 0.4999 0.8661 -25.7989 36.6047)" class="st1" width="9.3" height="2"/>
		<rect x="44.6" y="27.8" class="st1" width="2" height="9.5"/>
		<rect x="29.9" y="51.6" transform="matrix(0.8661 -0.4999 0.4999 0.8661 -21.7643 23.9312)" class="st1" width="7.8" height="2"/>
		<rect x="56.1" y="48.9" transform="matrix(0.5 -0.866 0.866 0.5 -16.7871 75.6716)" class="st1" width="2" height="6.9"/>
	</g>
</g>
</svg>
