<?xml version="1.0" encoding="utf-8"?>
<!-- Generator: Adobe Illustrator 22.0.1, SVG Export Plug-In . SVG Version: 6.00 Build 0)  -->
<svg version="1.1" id="Ebene_1" xmlns="http://www.w3.org/2000/svg" xmlns:xlink="http://www.w3.org/1999/xlink" x="0px" y="0px"
	 viewBox="0 0 90.7 90.7" style="enable-background:new 0 0 90.7 90.7;" xml:space="preserve">
<style type="text/css">
	.st0{fill:#36BDA1;}
	.st1{fill:#1D1D1B;}
</style>
<g>
	<path class="st0" d="M57.5,32.1c-6.6-6.6-17.4-6.6-24,0C27.8,37.7,27,46.4,31,52.9L14.6,69.3c-0.2,0.2-0.3,0.4-0.3,0.7
		s0.1,0.5,0.3,0.7l4.3,4.3c0.2,0.2,0.5,0.3,0.7,0.3s0.5-0.1,0.7-0.3l16.4-16.4c2.7,1.6,5.7,2.5,8.8,2.5c4.3,0,8.7-1.7,12-5
		C64.1,49.5,64.1,38.7,57.5,32.1z M19.5,72.9L16.7,70l15.2-15.2l2.9,2.9L19.5,72.9z M56.1,54.7c-5.8,5.8-15.3,5.8-21.2,0
		c-5.8-5.8-5.8-15.3,0-21.2c2.9-2.9,6.8-4.4,10.6-4.4c3.8,0,7.7,1.5,10.6,4.4C61.9,39.3,61.9,48.8,56.1,54.7z"/>
	<g>
		<path class="st1" d="M67.9,26.3c0-0.3-0.1-0.5-0.3-0.7l-9.9-9.9c-0.2-0.2-0.4-0.3-0.7-0.3v0H24c-0.6,0-1,0.4-1,1v39.3h2V17.4H56
			v8.9c0,0.6,0.4,1,1,1h8.9v43.4H27.6v2h39.2c0.6,0,1-0.4,1-1L67.9,26.3L67.9,26.3z M58,25.3v-6.5l6.5,6.5H58z"/>
		<rect x="37" y="43.1" transform="matrix(0.3827 -0.9239 0.9239 0.3827 -12.6754 69.2183)" class="st1" width="16.9" height="2"/>
		<path class="st1" d="M51.8,49.8l5-5c0.2-0.2,0.3-0.4,0.3-0.7s-0.1-0.5-0.3-0.7l-5-5l-1.4,1.4l4.3,4.3l-4.3,4.3L51.8,49.8z"/>
		<path class="st1" d="M39.1,38.4l-5,5c-0.4,0.4-0.4,1,0,1.4l5,5l1.4-1.4l-4.3-4.3l4.3-4.3L39.1,38.4z"/>
	</g>
</g>
</svg>
