<?xml version="1.0" encoding="utf-8"?>
<!-- Generator: Adobe Illustrator 22.0.1, SVG Export Plug-In . SVG Version: 6.00 Build 0)  -->
<svg version="1.1" id="Ebene_1" xmlns="http://www.w3.org/2000/svg" xmlns:xlink="http://www.w3.org/1999/xlink" x="0px" y="0px"
	 viewBox="0 0 90.7 90.7" style="enable-background:new 0 0 90.7 90.7;" xml:space="preserve">
<style type="text/css">
	.st0{fill:#36BDA1;}
	.st1{fill:#1D1D1B;}
</style>
<g>
	<g>
		<path class="st0" d="M40,52.2c-5.8,0-10.5,4.7-10.5,10.5S34.2,73.1,40,73.1s10.5-4.7,10.5-10.5S45.7,52.2,40,52.2z M40,71.1
			c-4.7,0-8.5-3.8-8.5-8.5s3.8-8.5,8.5-8.5c4.7,0,8.5,3.8,8.5,8.5S44.6,71.1,40,71.1z"/>
		<path class="st0" d="M42.6,63.9c-0.3-0.3-0.5-0.8-0.5-1.3s0.2-0.9,0.5-1.3c0.7-0.7,1.9-0.7,2.5,0l1.4-1.4c-1.4-1.4-3.9-1.4-5.4,0
			c-1.5,1.5-1.5,3.9,0,5.4c0.7,0.7,1.7,1.1,2.7,1.1c1,0,2-0.4,2.7-1.1l-1.4-1.4C44.4,64.6,43.3,64.6,42.6,63.9z"/>
		<path class="st0" d="M38.2,61.4l1.4-1.4c-1.5-1.5-3.9-1.5-5.4,0c-1.5,1.5-1.5,3.9,0,5.4c0.7,0.7,1.7,1.1,2.7,1.1s1.9-0.4,2.7-1.1
			l-1.4-1.4c-0.7,0.7-1.9,0.7-2.5,0c-0.3-0.3-0.5-0.8-0.5-1.3s0.2-0.9,0.5-1.3C36.3,60.7,37.5,60.7,38.2,61.4z"/>
	</g>
	<g>
		<path class="st1" d="M71.1,37.4h-6.2v2h3.8L60.1,48H21.9l4.8-4.8l-1.4-1.4l-6.5,6.5c-0.2,0.2-0.3,0.4-0.3,0.7v27.3
			c0,0.6,0.4,1,1,1h41c0.3,0,0.5-0.1,0.7-0.3l10.7-10.7c0.2-0.2,0.3-0.4,0.3-0.7V38.4C72.1,37.8,71.7,37.4,71.1,37.4z M59.5,75.3
			h-39V50h39V75.3z M61.5,73.9V49.5l8.7-8.7v24.4L61.5,73.9z"/>
		<path class="st1" d="M35,34.9c-0.3-0.2-0.7-0.2-1,0c-0.3,0.2-0.5,0.5-0.5,0.9V43c0,0.4,0.2,0.7,0.5,0.9c0.2,0.1,0.3,0.1,0.5,0.1
			s0.3,0,0.5-0.1l6.3-3.6c0.3-0.2,0.5-0.5,0.5-0.9s-0.2-0.7-0.5-0.9L35,34.9z M35.5,41.3v-3.8l3.3,1.9L35.5,41.3z"/>
		<path class="st1" d="M30.6,31.7h12.7v13.4h2V27.8H60v14.7h2V26.8c0-0.6-0.4-1-1-1h-6.4V14.4c0-0.6-0.4-1-1-1H37c-0.6,0-1,0.4-1,1
			v15.3h-6.4c-0.6,0-1,0.4-1,1v14.4h2V31.7z M52.6,15.4v4.2l-2.6-2.6c-0.4-0.4-1-0.4-1.4,0l-4.7,4.7l-2.6-2.6c-0.4-0.4-1-0.4-1.4,0
			L38,21.1v-5.7H52.6z M38,24l2.7-2.7l2.6,2.6c0.4,0.4,1,0.4,1.4,0l4.7-4.7l3.3,3.3v3.4h-8.3c-0.6,0-1,0.4-1,1v2.9H38V24z"/>
		<path class="st1" d="M53.7,30.4c-0.6,0-1,0.4-1,1v5.1c-0.4-0.1-0.7-0.2-1.1-0.2c-1.7,0-3.1,1.4-3.1,3.1c0,1.7,1.4,3.1,3.1,3.1
			c1.7,0,3.1-1.4,3.1-3.1v-5.2c0.6,0.3,1.3,0.4,2.3,0.4v-2c-2.1,0-2.2-1.1-2.3-1.3C54.7,30.8,54.2,30.4,53.7,30.4z M51.5,40.6
			c-0.6,0-1.1-0.5-1.1-1.1c0-0.6,0.5-1.1,1.1-1.1c0.6,0,1.1,0.5,1.1,1.1C52.7,40.1,52.2,40.6,51.5,40.6z"/>
	</g>
</g>
</svg>
