<?xml version="1.0" encoding="utf-8"?>
<!-- Generator: Adobe Illustrator 22.0.1, SVG Export Plug-In . SVG Version: 6.00 Build 0)  -->
<svg version="1.1" id="Ebene_1" xmlns="http://www.w3.org/2000/svg" xmlns:xlink="http://www.w3.org/1999/xlink" x="0px" y="0px"
	 viewBox="0 0 90.7 90.7" style="enable-background:new 0 0 90.7 90.7;" xml:space="preserve">
<style type="text/css">
	.st0{fill:#36BDA1;}
	.st1{fill:#1D1D1B;}
</style>
<g>
	<g>
		<rect x="40.8" y="41.8" class="st0" width="9.2" height="2"/>
		<path class="st0" d="M64.2,32.1L54,22.2c-0.2-0.2-0.4-0.3-0.7-0.3h-16c-0.3,0-0.5,0.1-0.7,0.3l-10.2,9.9c-0.2,0.2-0.3,0.4-0.3,0.7
			s0.1,0.5,0.3,0.7l8.8,8.6l1.4-1.4l-8.1-7.9l9.2-8.9h15.2l9.2,8.9L54,40.7l1.4,1.4l8.8-8.6c0.2-0.2,0.3-0.4,0.3-0.7
			S64.4,32.3,64.2,32.1z"/>
		<path class="st0" d="M52.2,29.8c1.7,0,3,1.3,3,3c0,0.9-0.4,1.7-1.1,2.3l1.3,1.5c1.1-1,1.8-2.4,1.8-3.8c0-2.8-2.2-5-5-5s-5,2.2-5,5
			c0,1.5,0.7,2.9,1.8,3.8l1.3-1.5c-0.7-0.6-1.1-1.4-1.1-2.3C49.1,31.2,50.5,29.8,52.2,29.8z"/>
		<path class="st0" d="M41.8,36.7c1.1-1,1.8-2.4,1.8-3.8c0-2.8-2.2-5-5-5s-5,2.2-5,5c0,1.5,0.7,2.9,1.8,3.8l1.3-1.5
			c-0.7-0.6-1.1-1.4-1.1-2.3c0-1.7,1.3-3,3-3s3,1.3,3,3c0,0.9-0.4,1.7-1.1,2.3L41.8,36.7z"/>
	</g>
	<g>
		<path class="st1" d="M61.6,8.5H29.1c-4.5,0-8.1,3.6-8.1,8.1V49c0,4.5,3.6,8.1,8.1,8.1v-2c-3.4,0-6.1-2.7-6.1-6.1V16.6
			c0-3.4,2.7-6.1,6.1-6.1h32.6c3.4,0,6.1,2.7,6.1,6.1V49c0,3.4-2.7,6.1-6.1,6.1v2c4.5,0,8.1-3.6,8.1-8.1V16.6
			C69.7,12.1,66.1,8.5,61.6,8.5z"/>
		<path class="st1" d="M58.3,48.6h-2.6V36.2c0-2-1.6-3.5-3.5-3.5s-3.5,1.6-3.5,3.5v12.4h-6.5V36.2c0-2-1.6-3.5-3.5-3.5
			S35,34.3,35,36.2v12.4h-2.6c-0.6,0-1,0.4-1,1v6.5c0,7.3,3.9,11.5,8,13.9c0,0.1-0.1,0.2-0.1,0.3v4.3c0,0.6,0.4,1,1,1h1.6v5.6h2
			v-5.6h3v5.6h2v-5.6h1.6c0.6,0,1-0.4,1-1v-4.3c0-0.1,0-0.2-0.1-0.3c4-2.4,8-6.6,8-13.9v-6.5C59.3,49.1,58.9,48.6,58.3,48.6z
			 M50.6,36.2c0-0.9,0.7-1.5,1.5-1.5s1.5,0.7,1.5,1.5v12.4h-3.1V36.2z M37,36.2c0-0.9,0.7-1.5,1.5-1.5s1.5,0.7,1.5,1.5v12.4H37V36.2
			z M49.4,73.6h-8.2v-2.3h8.2V73.6z M57.3,56.1c0,6.1-3,10.5-8.9,13.2h-6.1c-5.9-2.7-8.9-7.1-8.9-13.2v-5.5H36h5.1h8.5h5.1h2.6V56.1
			z"/>
	</g>
</g>
</svg>
