<?xml version="1.0" encoding="utf-8"?>
<!-- Generator: Adobe Illustrator 22.0.1, SVG Export Plug-In . SVG Version: 6.00 Build 0)  -->
<svg version="1.1" id="Ebene_1" xmlns="http://www.w3.org/2000/svg" xmlns:xlink="http://www.w3.org/1999/xlink" x="0px" y="0px"
	 viewBox="0 0 90.7 90.7" style="enable-background:new 0 0 90.7 90.7;" xml:space="preserve">
<style type="text/css">
	.st0{fill:#36BDA1;}
	.st1{fill:#1D1D1B;}
</style>
<g>
	<g>
		<rect x="34.5" y="53.9" class="st0" width="26.8" height="2"/>
		<path class="st0" d="M35.7,39.3h3.2v10.5h-2v2H59v-2h-2V39.3h3.2c0.4,0,0.8-0.3,1-0.7c0.1-0.4,0-0.9-0.4-1.1L48.9,29v-2.5h-2V29
			l-11.8,8.5c-0.4,0.3-0.5,0.7-0.4,1.1C34.9,39,35.2,39.3,35.7,39.3z M40.9,39.3h6v10.5h-6V39.3z M55,49.7h-6V39.3h6V49.7z
			 M47.9,30.7l9.1,6.5H38.8L47.9,30.7z"/>
	</g>
	<g>
		<path class="st1" d="M27.5,18.8h-2v56.3c0,0.6,0.4,1,1,1h17.9v-2H27.5V18.8z"/>
		<path class="st1" d="M69.3,18.8H41.8v2h26.5v53.3h-4v2h5c0.6,0,1-0.4,1-1V19.8C70.3,19.2,69.9,18.8,69.3,18.8z"/>
		<path class="st1" d="M33.8,13.7h-1.4c0-1.2,1-2.2,2.2-2.2c1.2,0,2.2,1,2.2,2.2v7.1c0,1.2-1,2.2-2.2,2.2c-1.2,0-2.2-1-2.2-2.2v-3.6
			h-2v3.6c0,2.3,1.9,4.2,4.2,4.2c2.3,0,4.2-1.9,4.2-4.2v-7.1c0-2.3-1.9-4.2-4.2-4.2c-2.3,0-4.2,1.9-4.2,4.2h-9.1c-0.6,0-1,0.4-1,1
			V71h2V15.7h11.5V13.7z"/>
		<rect x="41.8" y="13.7" class="st1" width="23.4" height="2"/>
		<path class="st1" d="M60.3,69.1h-9v-2.3c0-1.7,1.4-3.1,3.1-3.1s3.1,1.4,3.1,3.1h2c0-2.8-2.3-5.1-5.1-5.1s-5.1,2.3-5.1,5.1v2.3
			h-0.8c-0.6,0-1,0.4-1,1v10.2c0,0.6,0.4,1,1,1h11.8c0.6,0,1-0.4,1-1V70.1C61.3,69.5,60.9,69.1,60.3,69.1z M59.3,79.2h-9.8v-8.2h9.8
			V79.2z"/>
		<rect x="53.4" y="74.1" class="st1" width="2" height="2"/>
	</g>
</g>
</svg>
