<?xml version="1.0" encoding="utf-8"?>
<!-- Generator: Adobe Illustrator 22.0.1, SVG Export Plug-In . SVG Version: 6.00 Build 0)  -->
<svg version="1.1" id="Ebene_1" xmlns="http://www.w3.org/2000/svg" xmlns:xlink="http://www.w3.org/1999/xlink" x="0px" y="0px"
	 viewBox="0 0 90.7 90.7" style="enable-background:new 0 0 90.7 90.7;" xml:space="preserve">
<style type="text/css">
	.st0{fill:#1D1D1B;}
	.st1{fill:#36BDA1;}
</style>
<g>
	<path class="st0" d="M45.4,42.6C35,42.6,26.6,51,26.6,61.3S35,80,45.4,80s18.7-8.4,18.7-18.7S55.7,42.6,45.4,42.6z M28.6,61.3
		c0-2.1,0.4-4,1.1-5.9v2.3c0,0.3,0.1,0.5,0.3,0.7l6.7,6.7v10.5C31.9,72.7,28.6,67.4,28.6,61.3z M43.3,77.9l5.8-5.8
		c0.4-0.4,0.4-1,0-1.4L42.5,64l-1.4,1.4l5.9,5.9L41,77.4c-0.8-0.2-1.5-0.5-2.2-0.8V64.7c0-0.3-0.1-0.5-0.3-0.7l-6.7-6.7v-5.6
		c2.5-3.6,6.4-6.1,11-6.8l-2.6,2.6c-0.3,0.3-0.4,0.7-0.2,1.1c0.2,0.4,0.5,0.6,0.9,0.6H48l-7.6,7.6l-2.7,0c-0.3,0-0.5,0.1-0.7,0.3
		s-0.3,0.4-0.3,0.7l0,3l2,0l0-2l2.1,0c0,0,0,0,0,0c0.3,0,0.5-0.1,0.7-0.3l9.6-9.6c0.3-0.3,0.4-0.7,0.2-1.1c-0.2-0.4-0.5-0.6-0.9-0.6
		h-7.2l2.5-2.5c5.1,0.1,9.6,2.5,12.6,6.2L54.1,55c-0.3,0.3-0.4,0.7-0.2,1.1c0.2,0.4,0.5,0.6,0.9,0.6h3.7v-2h-1.3l2.3-2.3
		c1.2,1.9,2,4,2.4,6.2h-9c-0.6,0-1,0.4-1,1v8.4c0,0.6,0.4,1,1,1h3.1v5.2C53,76.6,49.4,78,45.4,78C44.7,78,44,78,43.3,77.9z
		 M57.9,72.3v-4.3c0-0.6-0.4-1-1-1h-3.1v-6.4H62c0,0.2,0,0.4,0,0.6C62.1,65.5,60.5,69.4,57.9,72.3z"/>
	<g>
		<path class="st1" d="M29,36.9l1.1,1.7c4.5-3,9.8-4.6,15.2-4.6s10.7,1.6,15.2,4.6l1.1-1.7C56.8,33.7,51.2,32,45.4,32
			S33.9,33.7,29,36.9z"/>
		<path class="st1" d="M45.4,10.7c-10.1,0-19.8,2.9-28.1,8.5l1.1,1.7c8-5.4,17.3-8.2,27-8.2s19,2.8,27,8.2l1.1-1.7
			C65.1,13.6,55.4,10.7,45.4,10.7z"/>
		<path class="st1" d="M23.1,28.1l1.1,1.7c6.2-4.2,13.5-6.4,21.1-6.4s14.8,2.2,21.1,6.4l1.1-1.7c-6.6-4.4-14.3-6.7-22.2-6.7
			S29.7,23.7,23.1,28.1z"/>
	</g>
</g>
</svg>
