<?xml version="1.0" encoding="utf-8"?>
<!-- Generator: Adobe Illustrator 22.0.1, SVG Export Plug-In . SVG Version: 6.00 Build 0)  -->
<svg version="1.1" id="Ebene_1" xmlns="http://www.w3.org/2000/svg" xmlns:xlink="http://www.w3.org/1999/xlink" x="0px" y="0px"
	 viewBox="0 0 90.7 90.7" style="enable-background:new 0 0 90.7 90.7;" xml:space="preserve">
<style type="text/css">
	.st0{fill:#1D1D1B;}
</style>
<g>
	<path class="st0" d="M73.9,31.1c-1.4,0-2.5,0.9-2.9,2.1h-7.8L52.4,44.1v-6.9c1.2-0.4,2.1-1.6,2.1-2.9c0-1.7-1.4-3.1-3.1-3.1
		s-3.1,1.4-3.1,3.1c0,1.4,0.9,2.5,2.1,2.9v8.9v1.4v24.1l4.3,4.3c-0.2,0.4-0.3,0.9-0.3,1.4c0,1.7,1.4,3.1,3.1,3.1s3.1-1.4,3.1-3.1
		s-1.4-3.1-3.1-3.1c-0.5,0-1,0.1-1.4,0.3l-3.7-3.7V47.5h8.2c0.4,1.2,1.6,2.1,2.9,2.1c1.7,0,3.1-1.4,3.1-3.1s-1.4-3.1-3.1-3.1
		c-1.4,0-2.5,0.9-2.9,2.1h-6.8L64,35.3h6.9c0.4,1.2,1.6,2.1,2.9,2.1c1.7,0,3.1-1.4,3.1-3.1S75.6,31.1,73.9,31.1z M51.4,33.1
		c0.6,0,1.1,0.5,1.1,1.1s-0.5,1.1-1.1,1.1s-1.1-0.5-1.1-1.1S50.7,33.1,51.4,33.1z M57.5,76.1c0.6,0,1.1,0.5,1.1,1.1
		s-0.5,1.1-1.1,1.1s-1.1-0.5-1.1-1.1S56.9,76.1,57.5,76.1z M63.5,45.3c0.6,0,1.1,0.5,1.1,1.1s-0.5,1.1-1.1,1.1
		c-0.6,0-1.1-0.5-1.1-1.1S62.9,45.3,63.5,45.3z M73.9,35.4c-0.6,0-1.1-0.5-1.1-1.1s0.5-1.1,1.1-1.1s1.1,0.5,1.1,1.1
		S74.5,35.4,73.9,35.4z"/>
	<path class="st0" d="M35,37.7L35,37.7c-1.2-1.2-3.2-1.2-4.4,0c-1.2,1.2-1.2,3.2,0,4.4c0.6,0.6,1.4,0.9,2.2,0.9c0.5,0,1-0.1,1.4-0.3
		l2.7,2.7h-6.8c-0.4-1.2-1.6-2.1-2.9-2.1c-1.7,0-3.1,1.4-3.1,3.1s1.4,3.1,3.1,3.1c1.4,0,2.5-0.9,2.9-2.1h8.2v23.3l-3.7,3.7
		c-1.2-0.5-2.6-0.4-3.6,0.6c-1.2,1.2-1.2,3.2,0,4.4c0.6,0.6,1.4,0.9,2.2,0.9c0.8,0,1.6-0.3,2.2-0.9c1-1,1.2-2.4,0.6-3.6l4.3-4.3
		V46.1l-4.7-4.7C36.2,40.2,36,38.7,35,37.7z M34,78.1c-0.4,0.4-1.2,0.4-1.6,0c-0.4-0.4-0.4-1.2,0-1.6c0.2-0.2,0.5-0.3,0.8-0.3
		s0.6,0.1,0.8,0.3h0C34.5,76.9,34.5,77.6,34,78.1z M32,40.8c-0.4-0.4-0.4-1.2,0-1.6c0.2-0.2,0.5-0.3,0.8-0.3c0.3,0,0.6,0.1,0.8,0.3
		c0.4,0.4,0.4,1.2,0,1.6C33.2,41.2,32.5,41.2,32,40.8z M27.2,47.6c-0.6,0-1.1-0.5-1.1-1.1s0.5-1.1,1.1-1.1s1.1,0.5,1.1,1.1
		S27.8,47.6,27.2,47.6z"/>
	<path class="st0" d="M46.4,74.3V30.9l5.6-5.6h10.8c0.4,1.2,1.6,2.1,2.9,2.1c1.7,0,3.1-1.4,3.1-3.1s-1.4-3.1-3.1-3.1
		c-1.4,0-2.5,0.9-2.9,2.1h-8.8l4.2-4.2c0.4,0.2,0.9,0.3,1.4,0.3c0.8,0,1.6-0.3,2.2-0.9c1.2-1.2,1.2-3.2,0-4.4l0,0
		c-1.2-1.2-3.2-1.2-4.4,0c-1,1-1.2,2.4-0.6,3.6L46.4,28V16.4c1.2-0.4,2.1-1.6,2.1-2.9c0-1.7-1.4-3.1-3.1-3.1s-3.1,1.4-3.1,3.1
		c0,1.4,0.9,2.5,2.1,2.9v21.7l-8.2-8.2v-6c1.2-0.4,2.1-1.6,2.1-2.9c0-1.7-1.4-3.1-3.1-3.1S32,19.2,32,20.9c0,1.4,0.9,2.5,2.1,2.9v4
		l-5.5-5.5c0.2-0.4,0.3-0.9,0.3-1.4c0-0.8-0.3-1.6-0.9-2.2c-1.2-1.2-3.2-1.2-4.4,0c-1.2,1.2-1.2,3.2,0,4.4c0.6,0.6,1.4,0.9,2.2,0.9
		c0.5,0,0.9-0.1,1.4-0.3l9.5,9.5H19.8c-0.4-1.2-1.6-2.1-2.9-2.1c-1.7,0-3.1,1.4-3.1,3.1s1.4,3.1,3.1,3.1c1.4,0,2.5-0.9,2.9-2.1h18.9
		l5.6,5.6v33.5c-0.4,0.1-0.9,0.4-1.2,0.7c-1.2,1.2-1.2,3.2,0,4.4c0.6,0.6,1.4,0.9,2.2,0.9c0.8,0,1.6-0.3,2.2-0.9
		c1.2-1.2,1.2-3.2,0-4.4C47.2,74.7,46.8,74.5,46.4,74.3z M65.7,23.2c0.6,0,1.1,0.5,1.1,1.1s-0.5,1.1-1.1,1.1s-1.1-0.5-1.1-1.1
		S65.1,23.2,65.7,23.2z M58.8,15.5c0.2-0.2,0.5-0.3,0.8-0.3c0.3,0,0.6,0.1,0.8,0.3c0.4,0.4,0.4,1.2,0,1.6c-0.4,0.4-1.2,0.4-1.6,0
		C58.3,16.6,58.3,15.9,58.8,15.5z M35.1,19.8c0.6,0,1.1,0.5,1.1,1.1s-0.5,1.1-1.1,1.1S34,21.6,34,20.9S34.5,19.8,35.1,19.8z
		 M16.9,35.4c-0.6,0-1.1-0.5-1.1-1.1s0.5-1.1,1.1-1.1s1.1,0.5,1.1,1.1S17.5,35.4,16.9,35.4z M25,21.7c-0.4-0.4-0.4-1.2,0-1.6
		c0.2-0.2,0.5-0.3,0.8-0.3c0.3,0,0.6,0.1,0.8,0.3c0.4,0.4,0.4,1.2,0,1.6C26.2,22.2,25.5,22.2,25,21.7z M45.4,12.3
		c0.6,0,1.1,0.5,1.1,1.1s-0.5,1.1-1.1,1.1s-1.1-0.5-1.1-1.1S44.7,12.3,45.4,12.3z M46.2,78.1c-0.4,0.4-1.2,0.4-1.6,0
		c-0.4-0.4-0.4-1.2,0-1.6c0.2-0.2,0.5-0.3,0.8-0.3s0.6,0.1,0.8,0.3C46.6,76.9,46.6,77.6,46.2,78.1z"/>
</g>
</svg>
