<?xml version="1.0" encoding="utf-8"?>
<!-- Generator: Adobe Illustrator 22.0.1, SVG Export Plug-In . SVG Version: 6.00 Build 0)  -->
<svg version="1.1" id="Ebene_1" xmlns="http://www.w3.org/2000/svg" xmlns:xlink="http://www.w3.org/1999/xlink" x="0px" y="0px"
	 viewBox="0 0 90.7 90.7" style="enable-background:new 0 0 90.7 90.7;" xml:space="preserve">
<style type="text/css">
	.st0{fill:#1D1D1B;}
</style>
<g>
	<path class="st0" d="M20,25.5c2.7,0,4.9-2.2,4.9-4.9s-2.2-4.9-4.9-4.9s-4.9,2.2-4.9,4.9S17.3,25.5,20,25.5z M20,17.6
		c1.6,0,2.9,1.3,2.9,2.9c0,1.6-1.3,2.9-2.9,2.9c-1.6,0-2.9-1.3-2.9-2.9C17.1,18.9,18.4,17.6,20,17.6z"/>
	<path class="st0" d="M60.2,31.8c2.7,0,4.9-2.2,4.9-4.9s-2.2-4.9-4.9-4.9s-4.9,2.2-4.9,4.9S57.5,31.8,60.2,31.8z M60.2,23.9
		c1.6,0,2.9,1.3,2.9,2.9c0,1.6-1.3,2.9-2.9,2.9c-1.6,0-2.9-1.3-2.9-2.9C57.3,25.2,58.6,23.9,60.2,23.9z"/>
	<path class="st0" d="M26.2,47.2v-4.4h-2v4.5c0,0.1,0,0.2,0,0.3l3.6,11.6l-0.7,13.9h-1.6L25,60.8c0-0.1,0-0.2-0.1-0.3l-3-8.3
		c-0.2-0.4-0.6-0.7-1-0.7c-0.5,0-0.8,0.4-0.9,0.8l-1.5,9l-5.2,11.5L12,72.3l3.9-13.4c0-0.1,0-0.2,0-0.3V32.9c0-1.8,0.7-2.5,2.5-2.5
		h5.1l6.1,7.1c0.1,0.2,0.3,0.3,0.5,0.3l8.8,2.1l-0.3,1.8l-10-1.4l-6.5-5.6l-1.3,1.5l6.7,5.7c0.1,0.1,0.3,0.2,0.5,0.2L39.4,44
		c0.3,0,0.5,0,0.7-0.2s0.4-0.4,0.4-0.7l0.5-3.7c0.1-0.5-0.3-1-0.8-1.1l-9.4-2.3l-6.2-7.2c-0.2-0.2-0.5-0.4-0.8-0.4h-5.6
		c-2.9,0-4.5,1.5-4.5,4.5v25.6L9.8,72.7c-0.1,0.5,0.1,1,0.6,1.2l3.1,1.1c0.1,0,0.2,0.1,0.3,0.1c0.4,0,0.7-0.2,0.9-0.6l5.6-12.4
		c0-0.1,0.1-0.2,0.1-0.2l0.9-5.3L23,61l0.7,13.1c0,0.5,0.5,0.9,1,0.9h3.5c0.5,0,1-0.4,1-1l0.7-15c0-0.1,0-0.2,0-0.3L26.2,47.2z"/>
	<path class="st0" d="M80.9,72.7l-4.1-14.1c0.2-0.8,0.9-3.4,1.8-7.2c0.6-2.3,0.2-3.8-1.3-5.9c-2.1-2.8-2.8-3.6-3.1-4.1
		c-0.5-0.6-0.5-0.6-2.4-3.2l-2.4-3c-1.8-2.3-3.7-2.7-6.2-1.3l-4.9,2.7c-0.3,0.1-0.4,0.4-0.5,0.7L56,46.7l-7,6.6
		c-0.4,0.4-0.4,0.9-0.1,1.3l2.3,3c0.2,0.2,0.4,0.3,0.7,0.4c0.3,0,0.5,0,0.7-0.2l9.1-7c0.1-0.1,0.3-0.3,0.3-0.4l3-8.3l-1.9-0.7
		l-2.9,8l-8,6.2L51,54.1l6.6-6.2c0.2-0.1,0.3-0.3,0.3-0.5l1.8-9.2l4.5-2.5c1.7-1,2.4-0.8,3.6,0.8l2.4,3c2,2.5,2,2.5,2.4,3.1
		c0.4,0.5,1,1.3,3.1,4.1c1.3,1.7,1.4,2.7,1,4.2c-1.2,4.6-1.9,7.5-1.9,7.5c0,0.2,0,0.4,0,0.5l3.9,13.4l-1.3,0.5l-5.1-11.4L72,54.4
		c0-0.4-0.3-0.8-0.7-0.9c-0.4-0.1-0.9,0.1-1.1,0.4l-4.2,6.4c-0.1,0.1-0.2,0.3-0.2,0.5l-0.6,12.3h-1.6l-0.7-13.8l4.8-9.7
		c0.1-0.3,0.1-0.6,0-0.9l-1-2l-1.8,0.9l0.8,1.5L61,58.6c-0.1,0.2-0.1,0.3-0.1,0.5l0.7,15c0,0.5,0.5,1,1,1h3.5c0.5,0,1-0.4,1-0.9
		l0.7-13l2.4-3.6l0.2,4.1c0,0.1,0,0.3,0.1,0.4l5.6,12.4c0.2,0.4,0.5,0.6,0.9,0.6c0.1,0,0.2,0,0.3-0.1l3.1-1.1
		C80.8,73.7,81.1,73.2,80.9,72.7z"/>
	<path class="st0" d="M50.9,65H39.5v-6.1h7v-2h-7v-6.1h7.9v-2h-8.9c-0.6,0-1,0.4-1,1v8.1V66v8.1c0,0.6,0.4,1,1,1h13.4
		c0.6,0,1-0.4,1-1V66v-5h-2V65z M50.9,73.1H39.5V67h11.4V73.1z"/>
	<path class="st0" d="M50.9,40.7h-6.4v2h7.4c0.6,0,1-0.4,1-1v-8.1c0-0.6-0.4-1-1-1H38.5v2h12.4V40.7z"/>
</g>
</svg>
