<?xml version="1.0" encoding="utf-8"?>
<!-- Generator: Adobe Illustrator 22.0.1, SVG Export Plug-In . SVG Version: 6.00 Build 0)  -->
<svg version="1.1" id="Ebene_1" xmlns="http://www.w3.org/2000/svg" xmlns:xlink="http://www.w3.org/1999/xlink" x="0px" y="0px"
	 viewBox="0 0 90.7 90.7" style="enable-background:new 0 0 90.7 90.7;" xml:space="preserve">
<style type="text/css">
	.st0{fill:#1D1D1B;}
</style>
<g>
	<path class="st0" d="M67.7,26.3c0-0.3-0.1-0.5-0.3-0.7l-9.9-9.9c-0.2-0.2-0.4-0.3-0.7-0.3v0H23.8c-0.6,0-1,0.4-1,1v39.3h2V17.4
		h30.9v8.9c0,0.6,0.4,1,1,1h8.9v43.4H27.4v2h39.2c0.6,0,1-0.4,1-1L67.7,26.3L67.7,26.3z M57.8,25.3v-6.5l6.5,6.5H57.8z"/>
	<rect x="36.8" y="43.1" transform="matrix(0.3828 -0.9238 0.9238 0.3828 -12.8046 69.0223)" class="st0" width="16.9" height="2"/>
	<path class="st0" d="M45.3,61.1c4.3,0,8.7-1.7,12-5c6.6-6.6,6.6-17.4,0-24c-6.6-6.6-17.4-6.6-24,0c-5.6,5.6-6.5,14.3-2.5,20.8
		L14.4,69.3c-0.4,0.4-0.4,1,0,1.4l4.3,4.3c0.2,0.2,0.5,0.3,0.7,0.3s0.5-0.1,0.7-0.3l16.4-16.4C39.1,60.2,42.2,61.1,45.3,61.1z
		 M34.7,33.5c2.9-2.9,6.8-4.4,10.6-4.4c3.8,0,7.7,1.5,10.6,4.4c5.8,5.8,5.8,15.3,0,21.2c-5.8,5.8-15.3,5.8-21.2,0
		C28.8,48.8,28.8,39.3,34.7,33.5z M19.3,72.9L16.5,70l15.2-15.2l2.9,2.9L19.3,72.9z"/>
	<path class="st0" d="M51.6,49.8l5-5c0.4-0.4,0.4-1,0-1.4l-5-5l-1.4,1.4l4.3,4.3l-4.3,4.3L51.6,49.8z"/>
	<path class="st0" d="M40.3,48.3l-4.3-4.3l4.3-4.3l-1.4-1.4l-5,5c-0.4,0.4-0.4,1,0,1.4l5,5L40.3,48.3z"/>
</g>
</svg>
